<?xml version="1.0" encoding="utf-8"?>
<!-- Generator: Adobe Illustrator 23.0.1, SVG Export Plug-In . SVG Version: 6.00 Build 0)  -->
<svg version="1.1" id="Layer_1" xmlns="http://www.w3.org/2000/svg" xmlns:xlink="http://www.w3.org/1999/xlink" x="0px" y="0px"
	 viewBox="0 0 35 35" style="enable-background:new 0 0 35 35;" xml:space="preserve">
<style type="text/css">
	.st0{fill-rule:evenodd;clip-rule:evenodd;fill:#E8EBF2;}
</style>
<path class="st0" d="M17.5,0C7.83,0,0,7.83,0,17.5C0,27.16,7.83,35,17.5,35S35,27.16,35,17.5C35,7.83,27.17,0,17.5,0z M12.67,26.23
	H9.04V14.57h3.63V26.23z M10.85,12.97c-1.16,0-2.1-0.94-2.1-2.1c0-1.16,0.94-2.1,2.1-2.1c1.16,0,2.1,0.94,2.1,2.1
	C12.96,12.03,12.01,12.97,10.85,12.97z M26.25,26.23h-3.63v-5.67c0-1.35-0.02-3.09-1.88-3.09c-1.89,0-2.17,1.47-2.17,3v5.77h-3.62
	V14.57h3.48v1.6h0.05c0.48-0.92,1.67-1.89,3.43-1.89c3.67,0,4.35,2.42,4.35,5.56V26.23z"/>
</svg>
