<?xml version="1.0" encoding="utf-8"?>
<!-- Generator: Adobe Illustrator 23.0.1, SVG Export Plug-In . SVG Version: 6.00 Build 0)  -->
<svg version="1.1" id="Layer_1" xmlns="http://www.w3.org/2000/svg" xmlns:xlink="http://www.w3.org/1999/xlink" x="0px" y="0px"
	 viewBox="0 0 35 35" style="enable-background:new 0 0 35 35;" xml:space="preserve">
<style type="text/css">
	.st0{fill-rule:evenodd;clip-rule:evenodd;fill:#E8EBF2;}
</style>
<path class="st0" d="M17.5,0C7.83,0,0,7.83,0,17.5C0,27.16,7.83,35,17.5,35S35,27.16,35,17.5C35,7.83,27.17,0,17.5,0 M24.46,13.93
	c0.01,0.15,0.01,0.31,0.01,0.46c0,4.74-3.61,10.21-10.22,10.21c-2.03,0-3.91-0.59-5.5-1.61c0.28,0.03,0.57,0.05,0.86,0.05
	c1.68,0,3.23-0.57,4.46-1.54c-1.57-0.03-2.9-1.07-3.35-2.49c0.22,0.04,0.44,0.06,0.68,0.06c0.33,0,0.64-0.04,0.95-0.13
	c-1.64-0.33-2.88-1.78-2.88-3.52v-0.05c0.48,0.27,1.04,0.43,1.63,0.45c-0.96-0.64-1.6-1.74-1.6-2.99c0-0.66,0.18-1.28,0.49-1.81
	c1.77,2.17,4.42,3.6,7.4,3.75c-0.06-0.26-0.09-0.54-0.09-0.82c0-1.98,1.61-3.59,3.59-3.59c1.03,0,1.97,0.44,2.62,1.13
	c0.82-0.16,1.59-0.46,2.28-0.87c-0.27,0.84-0.84,1.54-1.58,1.99c0.73-0.09,1.42-0.28,2.06-0.57C25.77,12.79,25.16,13.42,24.46,13.93
	"/>
</svg>
