<?xml version="1.0" encoding="utf-8"?>
<!-- Generator: Adobe Illustrator 23.0.1, SVG Export Plug-In . SVG Version: 6.00 Build 0)  -->
<svg version="1.1" id="Layer_1" xmlns="http://www.w3.org/2000/svg" xmlns:xlink="http://www.w3.org/1999/xlink" x="0px" y="0px"
	 viewBox="0 0 35 35" style="enable-background:new 0 0 35 35;" xml:space="preserve">
<style type="text/css">
	.st0{fill-rule:evenodd;clip-rule:evenodd;fill:#E8EBF2;}
</style>
<path class="st0" d="M17.5,0C7.84,0,0,7.83,0,17.5C0,27.16,7.84,35,17.5,35C27.17,35,35,27.16,35,17.5C35,7.83,27.17,0,17.5,0z
	 M22.04,11.66l-1.65,0c-1.29,0-1.54,0.61-1.54,1.51v1.99h3.08l-0.4,3.11h-2.68v7.98h-3.21v-7.98h-2.69v-3.11h2.69v-2.29
	c0-2.66,1.63-4.11,4-4.11c1.14,0,2.12,0.08,2.4,0.12V11.66z"/>
</svg>
