<?xml version="1.0" encoding="UTF-8"?>
<svg width="50px" height="50px" viewBox="0 0 50 50" version="1.1" xmlns="http://www.w3.org/2000/svg" xmlns:xlink="http://www.w3.org/1999/xlink">
    <!-- Generator: Sketch 53.2 (72643) - https://sketchapp.com -->
    <title>arrow</title>
    <desc>Created with Sketch.</desc>
    <g id="arrow" stroke="none" stroke-width="1" fill="none" fill-rule="evenodd">
        <path d="M18.1583135,24.5281622 L24.3138988,18.5606635 C24.6771128,18.2079558 24.6826439,17.6318463 24.3261903,17.2724608 C23.9685076,16.9136824 23.3852757,16.9088259 23.0220617,17.2603194 L15.2759558,24.7697761 C15.1001873,24.9403628 15.0006261,25.1728706 15.0000115,25.4156987 C14.9987824,25.6585267 15.0958853,25.8922487 15.26981,26.0640495 L23.0288221,33.7283091 C23.2088926,33.9061806 23.4448895,33.9948128 23.6808864,33.9948128 C23.9162687,33.9948128 24.1522655,33.9061806 24.3323361,33.7283091 C24.6924772,33.372566 24.6924772,32.7958494 24.3323361,32.4407135 L18.1656884,26.3493724 L34.8071559,26.3493724 C35.3160242,26.3493724 35.7290188,25.9414213 35.7290188,25.4387673 C35.7290188,24.9355062 35.3160242,24.5281622 34.8071559,24.5281622 L18.1583135,24.5281622 Z" fill="#68789C" transform="translate(25.364509, 25.497406) scale(-1, 1) translate(-25.364509, -25.497406) "></path>
    </g>
</svg>