<?xml version="1.0" encoding="UTF-8"?>
<svg width="35px" height="35px" viewBox="0 0 35 35" version="1.1" xmlns="http://www.w3.org/2000/svg" xmlns:xlink="http://www.w3.org/1999/xlink">
    <!-- Generator: Sketch 53.2 (72643) - https://sketchapp.com -->
    <title>arrow_small</title>
    <desc>Created with Sketch.</desc>
    <defs>
        <path d="M24.5707052,16.5281622 L18.4151199,10.5606635 C18.051906,10.2079558 18.0463748,9.63184631 18.4028284,9.27246083 C18.7605112,8.91368242 19.3437431,8.90882586 19.706957,9.26031943 L27.453063,16.7697761 C27.6288315,16.9403628 27.7283927,17.1728706 27.7290072,17.4156987 C27.7302364,17.6585267 27.6331335,17.8922487 27.4592087,18.0640495 L19.7001967,25.7283091 C19.5201262,25.9061806 19.2841293,25.9948128 19.0481324,25.9948128 C18.8127501,25.9948128 18.5767532,25.9061806 18.3966827,25.7283091 C18.0365416,25.372566 18.0365416,24.7958494 18.3966827,24.4407135 L24.5633303,18.3493724 L7.92186281,18.3493724 C7.41299454,18.3493724 7,17.9414213 7,17.4387673 C7,16.9355062 7.41299454,16.5281622 7.92186281,16.5281622 L24.5707052,16.5281622 Z" id="path-1"></path>
    </defs>
    <g id="arrow_small" stroke="none" stroke-width="1" fill="none" fill-rule="evenodd">
        <mask id="mask-2" fill="white">
            <use xlink:href="#path-1"></use>
        </mask>
        <use id="Mask" fill="#B8C3DA" xlink:href="#path-1"></use>
    </g>
</svg>