<?xml version="1.0" encoding="UTF-8"?>
<svg width="21px" height="17px" viewBox="0 0 21 17" version="1.1" xmlns="http://www.w3.org/2000/svg" xmlns:xlink="http://www.w3.org/1999/xlink">
    <g id="Page-1" stroke="none" stroke-width="1" fill="none" fill-rule="evenodd">
        <path d="M3.4292948,7.5281622 L20.0781372,7.5281622 C20.5870055,7.5281622 21,7.9355062 21,8.4387673 C21,8.9414213 20.5870055,9.3493724 20.0781372,9.3493724 L3.4366697,9.3493724 L9.6033173,15.4407135 C9.9634584,15.7958494 9.9634584,16.372566 9.6033173,16.7283091 C9.4232468,16.9061806 9.1872499,16.9948128 8.9518676,16.9948128 C8.7158707,16.9948128 8.4798738,16.9061806 8.2998033,16.7283091 L0.5407913,9.0640495 C0.3668665,8.8922487 0.2697636,8.6585267 0.2709928,8.4156987 C0.2716073,8.1728706 0.3711685,7.9403628 0.546937,7.7697761 L8.293043,0.26031943 C8.6562569,-0.09117414 9.2394888,-0.08631758 9.5971716,0.27246083 C9.9536252,0.63184631 9.948094,1.2079558 9.5848801,1.5606635 L3.4292948,7.5281622 Z" id="path-1" fill="#31CA81" fill-rule="nonzero"></path>
    </g>
</svg>