<?xml version="1.0" encoding="UTF-8"?>
<svg width="16px" height="16px" viewBox="0 0 16 16" version="1.1" xmlns="http://www.w3.org/2000/svg" xmlns:xlink="http://www.w3.org/1999/xlink">
    <!-- Generator: Sketch 53.2 (72643) - https://sketchapp.com -->
    <title>location</title>
    <desc>Created with Sketch.</desc>
    <defs>
        <path d="M14.9870779,8.18464565 C15.3884966,8.18464565 15.7142857,8.51043475 15.7142857,8.91185347 C15.7142857,9.15425608 15.7142857,11.8943752 15.7123465,13.1951075 C15.7099225,14.7062454 14.516332,15.2545601 13.7134946,15.2545601 C13.7130098,15.2545601 13.7120402,15.2545601 13.7120402,15.2545601 L2.743807,15.2545601 C1.96908827,15.2545601 1.5264611,14.931195 1.29084577,14.6597041 C0.827371984,14.1254488 0.844824972,13.4384798 0.865186791,13.216439 L0.865186791,2.2860206 C0.865186791,1.49627291 1.17885577,1.03279912 1.442105,0.782639631 C1.9913893,0.261474025 2.70211375,0.28329026 2.78210661,0.287168701 L6.98585263,0.286199091 C7.38775615,0.286199091 7.71306045,0.611988195 7.71306045,1.01340691 C7.71306045,1.41482563 7.38775615,1.74061474 6.98585263,1.74061474 L2.743807,1.74061474 C2.7156883,1.74158435 2.5392192,1.74206915 2.43886452,1.84242383 C2.33996425,1.94035448 2.31960244,2.13767021 2.31960244,2.2860206 L2.31960244,13.2547386 C2.31960244,13.2891598 2.31717841,13.3235809 2.31233036,13.3575173 C2.30408867,13.4321773 2.31766321,13.6265842 2.39135361,13.7090011 C2.44322777,13.7671777 2.57170115,13.8001445 2.743807,13.8001445 L13.712525,13.8001445 C14.2569612,13.7822067 14.257446,13.3386099 14.2579308,13.1931683 C14.2598701,11.8924359 14.2598701,9.15425608 14.2598701,8.91185347 C14.2598701,8.51043475 14.5851744,8.18464565 14.9870779,8.18464565 Z M15.6624116,0.747733655 C15.6948935,0.830150542 15.7142857,0.919354701 15.7142857,1.01292211 L15.7142857,5.92157491 C15.7142857,6.32299363 15.3884966,6.64878273 14.9870779,6.64878273 C14.5851744,6.64878273 14.2598701,6.32299363 14.2598701,5.92157491 L14.2598701,2.76840179 L9.13790298,7.89036888 C8.99585505,8.03241681 8.81017465,8.10319837 8.62400945,8.10319837 C8.43784425,8.10319837 8.25167904,8.03241681 8.10963112,7.89036888 C7.82553526,7.60627303 7.82553526,7.14570807 8.10963112,6.86161222 L13.2315982,1.74012993 L10.260227,1.74012993 C9.85832353,1.74012993 9.53301923,1.41434083 9.53301923,1.01292211 C9.53301923,0.61150339 9.85832353,0.285714286 10.260227,0.285714286 L14.9870779,0.285714286 C15.0811301,0.285714286 15.1698495,0.305106494 15.2522663,0.337103638 C15.2561448,0.338558054 15.2595384,0.339042859 15.2634169,0.340497275 C15.44231,0.414672473 15.5853275,0.557690011 15.6590179,0.736583135 C15.6609571,0.740461577 15.6614419,0.743855214 15.6624116,0.747733655 Z" id="path-1"></path>
    </defs>
    <g id="location" stroke="none" stroke-width="1" fill="none" fill-rule="evenodd">
        <mask id="mask-2" fill="white">
            <use xlink:href="#path-1"></use>
        </mask>
        <use id="Mask" fill="#00298F" xlink:href="#path-1"></use>
    </g>
</svg>