<?xml version="1.0" encoding="UTF-8"?>
<svg width="150px" height="38px" viewBox="0 0 150 38" version="1.1" xmlns="http://www.w3.org/2000/svg" xmlns:xlink="http://www.w3.org/1999/xlink">
    <!-- Generator: Sketch 53.2 (72643) - https://sketchapp.com -->
    <title>logo</title>
    <desc>Created with Sketch.</desc>
    <g id="logo" stroke="none" stroke-width="1" fill="none" fill-rule="evenodd">
        <g fill-rule="nonzero">
            <path d="M47.7414449,9.1192053 C46.4524715,8.05960265 44.8412548,7.63576159 43.1226236,7.63576159 C40.2224335,7.63576159 37.4296578,9.22516556 37.4296578,12.4039735 C37.4296578,17.2781457 44.411597,15.794702 44.411597,18.5496689 C44.411597,19.6092715 43.230038,20.0331126 42.1558935,20.0331126 C41.081749,20.0331126 40.0076046,19.5033113 39.2557034,18.6556291 L37,21.0927152 C38.3963878,22.3642384 40.115019,22.8940397 42.0484791,22.8940397 C45.1634981,22.8940397 47.7414449,21.3046358 47.7414449,18.0198675 C47.7414449,12.8278146 40.8669202,14.6291391 40.8669202,11.8741722 C40.8669202,10.8145695 42.1558935,10.3907285 43.1226236,10.3907285 C43.8745247,10.3907285 44.9486692,10.7086093 45.4857414,11.3443709 L47.7414449,9.1192053 L47.7414449,9.1192053 Z M49.3526616,22.5761589 L52.4676806,22.5761589 L52.4676806,17.5960265 C52.4676806,16.3245033 52.6825095,15.0529801 54.4011407,15.0529801 C55.904943,15.0529801 55.7975285,16.5364238 55.7975285,17.2781457 L55.7975285,22.5761589 L58.9125475,22.5761589 L58.9125475,17.2781457 C58.9125475,16.0066225 59.3422053,15.0529801 60.8460076,15.0529801 C61.9201521,15.0529801 62.2423954,15.794702 62.2423954,16.7483444 L62.2423954,22.5761589 L65.3574144,22.5761589 L65.3574144,16.6423841 C65.3574144,14.205298 64.4980989,12.2980132 61.7053232,12.2980132 C60.2015209,12.2980132 59.2347909,12.8278146 58.4828897,14.0993377 C57.9458175,12.8278146 56.7642586,12.2980132 55.3678707,12.2980132 C53.8640684,12.2980132 52.789924,13.1456954 52.3602662,13.8874172 L52.3602662,13.8874172 L52.3602662,12.5099338 L49.3526616,12.5099338 L49.3526616,22.5761589 Z M73.628327,22.5761589 L76.5285171,22.5761589 L76.5285171,17.4900662 C76.5285171,14.0993377 75.5617871,12.2980132 71.9096958,12.2980132 C70.2984791,12.2980132 68.5798479,12.8278146 67.398289,13.8874172 L69.1169202,15.5827815 C69.7614068,14.8410596 70.6207224,14.4172185 71.6948669,14.4172185 C72.7690114,14.4172185 73.7357414,15.1589404 73.7357414,16.218543 C71.1577947,16.218543 66.8612167,16.3245033 66.8612167,19.8211921 C66.8612167,21.8344371 68.5798479,22.8940397 70.513308,22.8940397 C71.8022814,22.8940397 73.0912548,22.4701987 73.7357414,21.410596 L73.7357414,21.410596 L73.628327,22.5761589 L73.628327,22.5761589 Z M73.628327,18.2317881 L73.628327,18.8675497 C73.628327,20.1390728 72.4467681,20.7748344 71.2652091,20.7748344 C70.6207224,20.7748344 69.7614068,20.4569536 69.7614068,19.7152318 C69.7614068,18.3377483 71.9096958,18.2317881 72.8764259,18.2317881 L73.628327,18.2317881 L73.628327,18.2317881 Z M78.1397338,22.5761589 L81.2547529,22.5761589 L81.2547529,18.3377483 C81.2547529,16.3245033 81.8992395,14.9470199 84.3697719,14.9470199 L86.5180608,14.9470199 L86.5180608,19.7152318 C86.5180608,21.9403974 88.1292776,22.7880795 90.2775665,22.7880795 C91.0294677,22.7880795 91.7813688,22.6821192 92.53327,22.4701987 L92.53327,19.9271523 C92.2110266,20.1390728 91.5665399,20.2450331 91.2442966,20.2450331 C89.8479087,20.2450331 89.7404943,19.5033113 89.7404943,18.3377483 L89.7404943,14.9470199 L92.53327,14.9470199 L92.53327,12.192053 L89.7404943,12.192053 L89.7404943,9.54304636 L86.6254753,9.54304636 L86.6254753,12.2980132 L84.9068441,12.2980132 C83.0807985,12.2980132 82.006654,12.9337748 81.3621673,14.205298 L81.3621673,14.205298 L81.3621673,12.615894 L78.2471483,12.615894 L78.1397338,22.5761589 L78.1397338,22.5761589 Z M101.23384,19.2913907 C100.696768,20.0331126 100.052281,20.5629139 98.9781369,20.5629139 C97.7965779,20.5629139 96.8298479,19.8211921 96.615019,18.6556291 L103.919202,18.6556291 L103.919202,17.7019868 C103.919202,14.5231788 102.093156,12.4039735 99.0855513,12.4039735 C95.9705323,12.4039735 93.3925856,14.5231788 93.3925856,17.7019868 C93.3925856,20.8807947 95.8631179,23 99.0855513,23 C100.696768,23 102.415399,22.2582781 103.382129,20.986755 L101.23384,19.2913907 L101.23384,19.2913907 Z M96.615019,16.4304636 C96.7224335,15.4768212 97.4743346,14.5231788 98.8707224,14.5231788 C100.052281,14.5231788 100.804183,15.3708609 100.804183,16.4304636 L96.615019,16.4304636 L96.615019,16.4304636 Z M104.026616,22.5761589 L107.678707,22.5761589 L110.041825,19.1854305 L112.297529,22.5761589 L116.057034,22.5761589 L112.0827,17.1721854 L115.412548,12.5099338 L111.867871,12.5099338 L110.14924,15.2649007 L108.323194,12.5099338 L104.563688,12.5099338 L108.000951,17.1721854 L104.026616,22.5761589 L104.026616,22.5761589 Z M117.990494,22.5761589 L126.798479,22.5761589 L126.798479,20.6688742 L119.923954,20.6688742 L119.923954,7.95364238 L117.990494,7.95364238 L117.990494,22.5761589 L117.990494,22.5761589 Z M129.913498,15.1589404 C130.557985,14.6291391 131.309886,13.9933775 132.706274,13.9933775 C134.31749,13.9933775 135.069392,15.0529801 135.069392,16.1125828 L135.069392,16.5364238 L133.673004,16.5364238 C130.665399,16.5364238 128.194867,17.384106 128.194867,19.9271523 C128.194867,21.8344371 129.806084,22.8940397 131.632129,22.8940397 C133.135932,22.8940397 134.31749,22.3642384 135.069392,21.1986755 L135.069392,21.1986755 C135.069392,21.7284768 135.069392,22.1523179 135.176806,22.6821192 L136.895437,22.6821192 C136.788023,22.1523179 136.788023,21.6225166 136.788023,20.8807947 L136.788023,15.794702 C136.788023,14.0993377 135.606464,12.5099338 132.598859,12.5099338 C131.202471,12.5099338 129.698669,13.0397351 128.624525,13.9933775 L129.913498,15.1589404 Z M135.176806,17.9139073 L135.176806,18.5496689 C135.176806,19.9271523 134.424905,21.410596 132.38403,21.410596 C131.095057,21.410596 130.235741,20.8807947 130.235741,19.8211921 C130.235741,18.2317881 132.38403,17.9139073 134.210076,17.9139073 L135.176806,17.9139073 L135.176806,17.9139073 Z M139.580798,22.5761589 L141.514259,22.5761589 L141.514259,21.1986755 L141.514259,21.1986755 C142.26616,22.2582781 143.662548,22.8940397 144.951521,22.8940397 C148.06654,22.8940397 150,20.6688742 150,17.7019868 C150,14.7350993 147.959125,12.5099338 144.951521,12.5099338 C143.555133,12.5099338 142.158745,13.1456954 141.514259,14.205298 L141.514259,14.205298 L141.514259,7 L139.580798,7 L139.580798,22.5761589 L139.580798,22.5761589 Z M144.736692,21.0927152 C142.695817,21.0927152 141.406844,19.6092715 141.406844,17.7019868 C141.406844,15.6887417 142.695817,14.3112583 144.736692,14.3112583 C146.777567,14.3112583 148.06654,15.794702 148.06654,17.7019868 C148.06654,19.7152318 146.777567,21.0927152 144.736692,21.0927152 Z" id="XMLID_173_" fill="#38568C"></path>
            <path d="M7.79181224,21 L9.19229648,21 C9.51548516,21 9.83867383,20.7823834 9.83867383,20.5647668 L13.3937492,12.1865285 L13.3937492,3.15544041 L18.5647679,3.15544041 L18.5647679,12.1865285 L22.1198433,20.5647668 C22.2275729,20.7823834 22.443032,21 22.7662207,21 L24.1667049,21 C24.9208118,21 25.1362709,20.3471503 24.9208118,19.6943005 L21.3657364,11.4248705 L21.3657364,3.15544041 L21.473466,3.15544041 C22.1198433,3.15544041 22.7662207,2.61139896 22.7662207,1.84974093 L22.7662207,1.30569948 C22.7662207,0.652849741 22.2275729,0 21.473466,0 L10.5927807,0 C9.83867383,0 9.30002604,0.544041451 9.30002604,1.30569948 L9.30002604,1.95854922 C9.30002604,2.61139896 9.83867383,3.2642487 10.5927807,3.2642487 L10.7005103,3.2642487 L10.7005103,11.5336788 L7.1454349,19.8031088 C6.82224623,20.3471503 7.03770534,21 7.79181224,21 L7.79181224,21 Z" id="XMLID_114_" fill="#38568C"></path>
            <path d="M31.5465001,33.9191176 L27.9551126,25.9779412 C27.3021331,24.4338235 26.1050039,23 23.6019156,23 L8.47455607,23 C5.75380795,23 4.77433862,24.5441176 4.12135907,25.9779412 L0.529971556,33.9191176 C-0.231837918,35.4632353 -0.667157617,38 2.81539998,38 L29.2610717,38 C32.6347994,38 32.1994797,35.4632353 31.5465001,33.9191176 Z M15.9838209,37.1176471 C15.4396713,37.1176471 14.8955216,36.6764706 14.8955216,36.0147059 C14.8955216,35.3529412 15.3308413,34.9117647 15.9838209,34.9117647 C16.5279705,34.9117647 17.0721201,35.3529412 17.0721201,36.0147059 C17.0721201,36.6764706 16.5279705,37.1176471 15.9838209,37.1176471 Z M25.4520243,34.3602941 L6.51561742,34.3602941 C4.01252915,34.3602941 4.44784885,32.7058824 4.88316855,31.7132353 L7.05976704,26.6397059 C7.49508674,25.6470588 8.03923637,24.7647059 9.88934509,24.7647059 L22.1871266,24.7647059 C23.9284054,24.7647059 24.5813849,25.7573529 25.0167046,26.6397059 L27.1933031,31.7132353 C27.5197929,32.7058824 27.9551126,34.3602941 25.4520243,34.3602941 Z" id="XMLID_59_" fill="#38568C"></path>
            <path d="M45.3237113,31.6 C45.3237113,31.8 45.2164948,32.1 45.1092784,32.2 C45.0020619,32.3 44.7876289,32.5 44.5731959,32.6 C44.3587629,32.7 44.0371134,32.8 43.7154639,32.8 C43.3938144,32.8 43.1793814,32.8 43.0721649,32.7 C42.857732,32.7 42.643299,32.6 42.5360825,32.5 L42.5360825,31.6 C42.7505155,31.7 42.9649485,31.8 43.1793814,31.8 C43.3938144,31.9 43.6082474,31.9 43.8226804,31.9 C44.0371134,31.9 44.1443299,31.9 44.1443299,31.8 C44.2515464,31.7 44.2515464,31.7 44.2515464,31.6 C44.2515464,31.5 44.2515464,31.5 44.2515464,31.5 C44.2515464,31.5 44.1443299,31.4 44.1443299,31.4 C44.1443299,31.4 43.9298969,31.3 43.6082474,31.2 C43.2865979,31.1 43.1793814,31 42.9649485,30.9 C42.857732,30.8 42.7505155,30.7 42.643299,30.5 C42.5360825,30.3 42.5360825,30.2 42.5360825,30 C42.5360825,29.6 42.643299,29.4 42.9649485,29.2 C43.2865979,29 43.6082474,28.9 44.1443299,28.9 C44.5731959,28.9 45.0020619,29 45.4309278,29.2 L45.1092784,30 C44.6804124,29.8 44.3587629,29.8 44.1443299,29.8 C44.0371134,29.8 43.9298969,29.8 43.8226804,29.9 C43.7154639,29.9 43.7154639,30 43.7154639,30.1 C43.7154639,30.2 43.7154639,30.2 43.8226804,30.3 C43.9298969,30.4 44.1443299,30.5 44.4659794,30.6 C44.7876289,30.7 45.1092784,30.9 45.2164948,31.1 C45.3237113,31.1 45.3237113,31.3 45.3237113,31.6 Z" id="XMLID_655_" fill="#A7A7A7"></path>
            <path d="M48.6474227,32.8 L47.7896907,30 L47.7896907,30 C47.7896907,30.5 47.8969072,30.8 47.8969072,31.1 L47.8969072,32.8 L46.9319588,32.8 L46.9319588,28.9 L48.4329897,28.9 L49.2907216,31.6 L49.2907216,31.6 L50.1484536,28.9 L51.6494845,28.9 L51.6494845,32.8 L50.5773196,32.8 L50.5773196,31.1 C50.5773196,31 50.5773196,30.9 50.5773196,30.8 C50.5773196,30.7 50.5773196,30.4 50.5773196,30 L50.5773196,30 L49.7195876,32.8 L48.6474227,32.8 Z" id="XMLID_653_" fill="#A7A7A7"></path>
            <path d="M55.8309278,32.8 L55.6164948,32 L54.2226804,32 L54.0082474,32.7 L52.828866,32.7 L54.2226804,28.8 L55.7237113,28.8 L57.1175258,32.7 L55.8309278,32.7 L55.8309278,32.8 Z M55.4020619,31.2 L55.1876289,30.6 C55.1876289,30.5 55.0804124,30.3 55.0804124,30.1 C55.0804124,29.9 54.9731959,29.7 54.9731959,29.6 C54.9731959,29.7 54.9731959,29.8 54.8659794,30 C54.7587629,30.2 54.7587629,30.6 54.5443299,31.2 L55.4020619,31.2 L55.4020619,31.2 Z" id="XMLID_650_" fill="#A7A7A7"></path>
            <path d="M59.4762887,31.4 L59.4762887,32.8 L58.4041237,32.8 L58.4041237,28.9 L59.7979381,28.9 C60.8701031,28.9 61.5134021,29.3 61.5134021,30 C61.5134021,30.4 61.2989691,30.8 60.7628866,31 L61.942268,32.7 L60.6556701,32.7 L59.7979381,31.3 L59.4762887,31.3 L59.4762887,31.4 Z M59.4762887,30.6 L59.6907216,30.6 C60.1195876,30.6 60.2268041,30.4 60.2268041,30.1 C60.2268041,29.8 60.0123711,29.7 59.6907216,29.7 L59.4762887,29.7 L59.4762887,30.6 Z" id="XMLID_647_" fill="#A7A7A7"></path>
            <polygon id="XMLID_645_" fill="#A7A7A7" points="64.9443299 32.8 63.8721649 32.8 63.8721649 29.8 62.9072165 29.8 62.9072165 28.9 66.0164948 28.9 66.0164948 29.8 65.0515464 29.8 65.0515464 32.8"></polygon>
            <path d="M71.6989691,29.7 C71.4845361,29.7 71.2701031,29.8 71.0556701,30 C70.8412371,30.2 70.8412371,30.5 70.8412371,30.8 C70.8412371,31.5 71.1628866,31.9 71.6989691,31.9 C71.9134021,31.9 72.0206186,31.9 72.2350515,31.8 C72.4494845,31.8 72.556701,31.7 72.771134,31.6 L72.771134,32.5 C72.4494845,32.6 72.0206186,32.7 71.5917526,32.7 C70.9484536,32.7 70.5195876,32.5 70.1979381,32.2 C69.8762887,31.9 69.6618557,31.4 69.6618557,30.7 C69.6618557,30.3 69.7690722,30 69.8762887,29.6 C69.9835052,29.3 70.3051546,29.1 70.5195876,28.9 C70.7340206,28.7 71.1628866,28.7 71.5917526,28.7 C72.0206186,28.7 72.4494845,28.8 72.8783505,29 L72.556701,29.8 C72.4494845,29.7 72.2350515,29.7 72.1278351,29.6 C72.0206186,29.7 71.8061856,29.7 71.6989691,29.7 Z" id="XMLID_643_" fill="#A7A7A7"></path>
            <path d="M75.5587629,31.4 L75.5587629,32.8 L74.4865979,32.8 L74.4865979,28.9 L75.8804124,28.9 C76.9525773,28.9 77.5958763,29.3 77.5958763,30 C77.5958763,30.4 77.3814433,30.8 76.8453608,31 L78.0247423,32.7 L76.7381443,32.7 L75.8804124,31.3 L75.5587629,31.3 L75.5587629,31.4 Z M75.5587629,30.6 L75.7731959,30.6 C76.2020619,30.6 76.3092784,30.4 76.3092784,30.1 C76.3092784,29.8 76.0948454,29.7 75.7731959,29.7 L75.5587629,29.7 L75.5587629,30.6 Z" id="XMLID_640_" fill="#A7A7A7"></path>
            <polygon id="XMLID_638_" fill="#A7A7A7" points="81.6701031 32.8 79.2041237 32.8 79.2041237 28.9 81.6701031 28.9 81.6701031 29.7 80.3835052 29.7 80.3835052 30.3 81.6701031 30.3 81.6701031 31.1 80.3835052 31.1 80.3835052 31.8 81.6701031 31.8"></polygon>
            <path d="M85.7443299,32.8 L85.6371134,32 L84.243299,32 L84.028866,32.7 L82.8494845,32.7 L84.243299,28.8 L85.7443299,28.8 L87.1381443,32.7 L85.7443299,32.7 L85.7443299,32.8 Z M85.3154639,31.2 L85.1010309,30.6 C85.1010309,30.5 84.9938144,30.3 84.9938144,30.1 C84.8865979,29.9 84.8865979,29.7 84.8865979,29.6 C84.8865979,29.7 84.8865979,29.8 84.7793814,30 C84.6721649,30.2 84.6721649,30.6 84.457732,31.2 L85.3154639,31.2 L85.3154639,31.2 Z" id="XMLID_635_" fill="#A7A7A7"></path>
            <polygon id="XMLID_633_" fill="#A7A7A7" points="90.1402062 32.8 89.0680412 32.8 89.0680412 29.8 88.1030928 29.8 88.1030928 28.9 91.2123711 28.9 91.2123711 29.8 90.2474227 29.8 90.2474227 32.8"></polygon>
            <polygon id="XMLID_631_" fill="#A7A7A7" points="92.6061856 32.8 92.6061856 28.9 93.6783505 28.9 93.6783505 32.8"></polygon>
            <path d="M97.8597938,28.9 L99.1463918,28.9 L97.7525773,32.8 L96.4659794,32.8 L95.0721649,28.9 L96.3587629,28.9 L96.8948454,30.9 C97.0020619,31.3 97.1092784,31.6 97.1092784,31.8 C97.1092784,31.7 97.1092784,31.5 97.2164948,31.3 C97.2164948,31.1 97.3237113,31 97.3237113,30.9 L97.8597938,28.9 Z" id="XMLID_629_" fill="#A7A7A7"></path>
            <polygon id="XMLID_627_" fill="#A7A7A7" points="102.791753 32.8 100.325773 32.8 100.325773 28.9 102.791753 28.9 102.791753 29.7 101.505155 29.7 101.505155 30.3 102.791753 30.3 102.791753 31.1 101.505155 31.1 101.505155 31.8 102.791753 31.8"></polygon>
            <path d="M110.296907,30.8 C110.296907,31.4 110.082474,31.9 109.760825,32.3 C109.331959,32.6 108.795876,32.8 108.152577,32.8 L106.865979,32.8 L106.865979,28.9 L108.259794,28.9 C108.903093,28.9 109.439175,29.1 109.760825,29.4 C110.082474,29.7 110.296907,30.2 110.296907,30.8 Z M109.117526,30.8 C109.117526,30.4 109.010309,30.2 108.903093,30 C108.795876,29.8 108.474227,29.7 108.259794,29.7 L107.938144,29.7 L107.938144,31.9 L108.152577,31.9 C108.474227,31.9 108.68866,31.8 108.903093,31.6 C109.010309,31.4 109.117526,31.2 109.117526,30.8 Z" id="XMLID_624_" fill="#A7A7A7"></path>
            <polygon id="XMLID_622_" fill="#A7A7A7" points="114.371134 32.8 111.905155 32.8 111.905155 28.9 114.371134 28.9 114.371134 29.7 113.084536 29.7 113.084536 30.3 114.371134 30.3 114.371134 31.1 113.084536 31.1 113.084536 31.8 114.371134 31.8"></polygon>
            <path d="M119.410309,30.8 C119.410309,31.4 119.195876,31.9 118.874227,32.3 C118.445361,32.6 117.909278,32.8 117.265979,32.8 L115.979381,32.8 L115.979381,28.9 L117.373196,28.9 C118.016495,28.9 118.552577,29.1 118.874227,29.4 C119.303093,29.7 119.410309,30.2 119.410309,30.8 Z M118.338144,30.8 C118.338144,30.4 118.230928,30.2 118.123711,30 C118.016495,29.8 117.694845,29.7 117.480412,29.7 L117.051546,29.7 L117.051546,31.9 L117.265979,31.9 C117.587629,31.9 117.802062,31.8 118.016495,31.6 C118.230928,31.4 118.338144,31.2 118.338144,30.8 Z" id="XMLID_619_" fill="#A7A7A7"></path>
            <polygon id="XMLID_617_" fill="#A7A7A7" points="121.018557 32.8 121.018557 28.9 122.090722 28.9 122.090722 32.8"></polygon>
            <path d="M125.736082,29.7 C125.521649,29.7 125.307216,29.8 125.092784,30 C124.878351,30.2 124.878351,30.5 124.878351,30.8 C124.878351,31.5 125.2,31.9 125.736082,31.9 C125.950515,31.9 126.057732,31.9 126.272165,31.8 C126.486598,31.8 126.593814,31.7 126.808247,31.6 L126.808247,32.5 C126.486598,32.6 126.057732,32.7 125.628866,32.7 C124.985567,32.7 124.556701,32.5 124.235052,32.2 C123.913402,31.9 123.698969,31.4 123.698969,30.7 C123.698969,30.3 123.806186,30 123.913402,29.6 C124.127835,29.3 124.342268,29.1 124.556701,28.9 C124.878351,28.7 125.2,28.7 125.628866,28.7 C126.057732,28.7 126.486598,28.8 126.915464,29 L126.593814,29.8 C126.486598,29.7 126.272165,29.7 126.164948,29.6 C126.057732,29.7 125.950515,29.7 125.736082,29.7 Z" id="XMLID_615_" fill="#A7A7A7"></path>
            <path d="M131.096907,32.8 L130.882474,32.1 L129.48866,32.1 L129.274227,32.8 L128.094845,32.8 L129.48866,28.9 L130.989691,28.9 L132.383505,32.8 L131.096907,32.8 Z M130.668041,31.2 L130.453608,30.6 C130.453608,30.5 130.346392,30.3 130.346392,30.1 C130.239175,29.9 130.239175,29.7 130.239175,29.6 C130.239175,29.7 130.239175,29.8 130.131959,30 C130.024742,30.2 130.024742,30.6 129.810309,31.2 L130.668041,31.2 L130.668041,31.2 Z" id="XMLID_612_" fill="#A7A7A7"></path>
            <polygon id="XMLID_610_" fill="#A7A7A7" points="135.385567 32.8 134.313402 32.8 134.313402 29.8 133.348454 29.8 133.348454 28.9 136.457732 28.9 136.457732 29.8 135.492784 29.8 135.492784 32.8"></polygon>
            <polygon id="XMLID_608_" fill="#A7A7A7" points="140.317526 32.8 137.851546 32.8 137.851546 28.9 140.317526 28.9 140.317526 29.7 139.030928 29.7 139.030928 30.3 140.317526 30.3 140.317526 31.1 139.030928 31.1 139.030928 31.8 140.317526 31.8"></polygon>
            <path d="M145.463918,30.8 C145.463918,31.4 145.249485,31.9 144.927835,32.3 C144.498969,32.6 143.962887,32.8 143.319588,32.8 L142.03299,32.8 L142.03299,28.9 L143.426804,28.9 C144.070103,28.9 144.606186,29.1 144.927835,29.4 C145.249485,29.7 145.463918,30.2 145.463918,30.8 Z M144.284536,30.8 C144.284536,30.4 144.17732,30.2 144.070103,30 C143.962887,29.8 143.641237,29.7 143.426804,29.7 L143.105155,29.7 L143.105155,31.9 L143.319588,31.9 C143.641237,31.9 143.85567,31.8 144.070103,31.6 C144.17732,31.4 144.284536,31.2 144.284536,30.8 Z" id="XMLID_605_" fill="#A7A7A7"></path>
        </g>
    </g>
</svg>