<?xml version="1.0" encoding="UTF-8"?>
<svg width="200px" height="50px" viewBox="0 0 200 50" version="1.1" xmlns="http://www.w3.org/2000/svg" xmlns:xlink="http://www.w3.org/1999/xlink">
    <!-- Generator: Sketch 53.2 (72643) - https://sketchapp.com -->
    <title>logo_big</title>
    <desc>Created with Sketch.</desc>
    <g id="logo_big" stroke="none" stroke-width="1" fill="none" fill-rule="evenodd">
        <g id="logo" fill="#FFFFFF" fill-rule="nonzero">
            <path d="M64.2585551,11.9139073 C62.5475285,10.4569536 60.4087452,9.87417219 58.1273764,9.87417219 C54.2775665,9.87417219 50.5703422,12.0596026 50.5703422,16.4304636 C50.5703422,23.1324503 59.838403,21.0927152 59.838403,24.8807947 C59.838403,26.3377483 58.269962,26.9205298 56.8441065,26.9205298 C55.418251,26.9205298 53.9923954,26.192053 52.9942966,25.0264901 L50,28.3774834 C51.8536122,30.1258278 54.134981,30.8543046 56.7015209,30.8543046 C60.8365019,30.8543046 64.2585551,28.6688742 64.2585551,24.1523179 C64.2585551,17.013245 55.1330798,19.4900662 55.1330798,15.7019868 C55.1330798,14.2450331 56.8441065,13.6622517 58.1273764,13.6622517 C59.1254753,13.6622517 60.5513308,14.0993377 61.2642586,14.9735099 L64.2585551,11.9139073 L64.2585551,11.9139073 Z M66.3973384,30.4172185 L70.5323194,30.4172185 L70.5323194,23.5695364 C70.5323194,21.8211921 70.8174905,20.0728477 73.0988593,20.0728477 C75.095057,20.0728477 74.9524715,22.1125828 74.9524715,23.1324503 L74.9524715,30.4172185 L79.0874525,30.4172185 L79.0874525,23.1324503 C79.0874525,21.384106 79.6577947,20.0728477 81.6539924,20.0728477 C83.0798479,20.0728477 83.5076046,21.0927152 83.5076046,22.4039735 L83.5076046,30.4172185 L87.6425856,30.4172185 L87.6425856,22.2582781 C87.6425856,18.9072848 86.5019011,16.2847682 82.7946768,16.2847682 C80.7984791,16.2847682 79.5152091,17.013245 78.5171103,18.7615894 C77.8041825,17.013245 76.2357414,16.2847682 74.3821293,16.2847682 C72.3859316,16.2847682 70.960076,17.4503311 70.3897338,18.4701987 L70.3897338,18.4701987 L70.3897338,16.5761589 L66.3973384,16.5761589 L66.3973384,30.4172185 Z M98.621673,30.4172185 L102.471483,30.4172185 L102.471483,23.4238411 C102.471483,18.7615894 101.188213,16.2847682 96.3403042,16.2847682 C94.2015209,16.2847682 91.9201521,17.013245 90.351711,18.4701987 L92.6330798,20.8013245 C93.4885932,19.781457 94.6292776,19.1986755 96.0551331,19.1986755 C97.4809886,19.1986755 98.7642586,20.218543 98.7642586,21.6754967 C95.3422053,21.6754967 89.6387833,21.8211921 89.6387833,26.6291391 C89.6387833,29.397351 91.9201521,30.8543046 94.486692,30.8543046 C96.1977186,30.8543046 97.9087452,30.2715232 98.7642586,28.8145695 L98.7642586,28.8145695 L98.621673,30.4172185 L98.621673,30.4172185 Z M98.621673,24.4437086 L98.621673,25.3178808 C98.621673,27.0662252 97.0532319,27.9403974 95.4847909,27.9403974 C94.6292776,27.9403974 93.4885932,27.5033113 93.4885932,26.4834437 C93.4885932,24.589404 96.3403042,24.4437086 97.6235741,24.4437086 L98.621673,24.4437086 L98.621673,24.4437086 Z M104.610266,30.4172185 L108.745247,30.4172185 L108.745247,24.589404 C108.745247,21.8211921 109.60076,19.9271523 112.880228,19.9271523 L115.731939,19.9271523 L115.731939,26.4834437 C115.731939,29.5430464 117.870722,30.7086093 120.722433,30.7086093 C121.720532,30.7086093 122.718631,30.5629139 123.71673,30.2715232 L123.71673,26.7748344 C123.288973,27.0662252 122.43346,27.2119205 122.005703,27.2119205 C120.152091,27.2119205 120.009506,26.192053 120.009506,24.589404 L120.009506,19.9271523 L123.71673,19.9271523 L123.71673,16.1390728 L120.009506,16.1390728 L120.009506,12.4966887 L115.874525,12.4966887 L115.874525,16.2847682 L113.593156,16.2847682 C111.169202,16.2847682 109.743346,17.1589404 108.887833,18.9072848 L108.887833,18.9072848 L108.887833,16.7218543 L104.752852,16.7218543 L104.610266,30.4172185 L104.610266,30.4172185 Z M135.26616,25.9006623 C134.553232,26.9205298 133.697719,27.6490066 132.271863,27.6490066 C130.703422,27.6490066 129.420152,26.6291391 129.134981,25.0264901 L138.830798,25.0264901 L138.830798,23.7152318 C138.830798,19.3443709 136.406844,16.4304636 132.414449,16.4304636 C128.279468,16.4304636 124.857414,19.3443709 124.857414,23.7152318 C124.857414,28.0860927 128.136882,31 132.414449,31 C134.553232,31 136.834601,29.9801325 138.117871,28.2317881 L135.26616,25.9006623 L135.26616,25.9006623 Z M129.134981,21.9668874 C129.277567,20.6556291 130.275665,19.3443709 132.129278,19.3443709 C133.697719,19.3443709 134.695817,20.5099338 134.695817,21.9668874 L129.134981,21.9668874 L129.134981,21.9668874 Z M138.973384,30.4172185 L143.821293,30.4172185 L146.958175,25.7549669 L149.952471,30.4172185 L154.942966,30.4172185 L149.6673,22.986755 L154.087452,16.5761589 L149.382129,16.5761589 L147.10076,20.3642384 L144.676806,16.5761589 L139.686312,16.5761589 L144.249049,22.986755 L138.973384,30.4172185 L138.973384,30.4172185 Z M157.509506,30.4172185 L169.201521,30.4172185 L169.201521,27.794702 L160.076046,27.794702 L160.076046,10.3112583 L157.509506,10.3112583 L157.509506,30.4172185 L157.509506,30.4172185 Z M173.336502,20.218543 C174.192015,19.4900662 175.190114,18.615894 177.043726,18.615894 C179.18251,18.615894 180.180608,20.0728477 180.180608,21.5298013 L180.180608,22.1125828 L178.326996,22.1125828 C174.334601,22.1125828 171.055133,23.2781457 171.055133,26.7748344 C171.055133,29.397351 173.193916,30.8543046 175.617871,30.8543046 C177.614068,30.8543046 179.18251,30.1258278 180.180608,28.5231788 L180.180608,28.5231788 C180.180608,29.2516556 180.180608,29.8344371 180.323194,30.5629139 L182.604563,30.5629139 C182.461977,29.8344371 182.461977,29.1059603 182.461977,28.0860927 L182.461977,21.0927152 C182.461977,18.7615894 180.893536,16.5761589 176.901141,16.5761589 C175.047529,16.5761589 173.051331,17.3046358 171.625475,18.615894 L173.336502,20.218543 Z M180.323194,24.0066225 L180.323194,24.8807947 C180.323194,26.7748344 179.325095,28.8145695 176.61597,28.8145695 C174.904943,28.8145695 173.764259,28.0860927 173.764259,26.6291391 C173.764259,24.4437086 176.61597,24.0066225 179.039924,24.0066225 L180.323194,24.0066225 L180.323194,24.0066225 Z M186.169202,30.4172185 L188.735741,30.4172185 L188.735741,28.5231788 L188.735741,28.5231788 C189.73384,29.9801325 191.587452,30.8543046 193.298479,30.8543046 C197.43346,30.8543046 200,27.794702 200,23.7152318 C200,19.6357616 197.290875,16.5761589 193.298479,16.5761589 C191.444867,16.5761589 189.591255,17.4503311 188.735741,18.9072848 L188.735741,18.9072848 L188.735741,9 L186.169202,9 L186.169202,30.4172185 L186.169202,30.4172185 Z M193.013308,28.3774834 C190.304183,28.3774834 188.593156,26.3377483 188.593156,23.7152318 C188.593156,20.9470199 190.304183,19.0529801 193.013308,19.0529801 C195.722433,19.0529801 197.43346,21.0927152 197.43346,23.7152318 C197.43346,26.4834437 195.722433,28.3774834 193.013308,28.3774834 Z" id="XMLID_173_"></path>
            <path d="M10.0557497,28 L11.923062,28 C12.3539802,28 12.7848984,27.7098446 12.7848984,27.4196891 L17.5249989,16.2487047 L17.5249989,4.20725389 L24.4196906,4.20725389 L24.4196906,16.2487047 L29.1597911,27.4196891 C29.3034305,27.7098446 29.5907093,28 30.0216275,28 L31.8889399,28 C32.8944157,28 33.1816946,27.1295337 32.8944157,26.2590674 L28.1543152,15.2331606 L28.1543152,4.20725389 L28.2979546,4.20725389 C29.1597911,4.20725389 30.0216275,3.48186528 30.0216275,2.46632124 L30.0216275,1.74093264 C30.0216275,0.870466321 29.3034305,0 28.2979546,0 L13.7903743,0 C12.7848984,0 12.0667014,0.725388601 12.0667014,1.74093264 L12.0667014,2.61139896 C12.0667014,3.48186528 12.7848984,4.35233161 13.7903743,4.35233161 L13.9340137,4.35233161 L13.9340137,15.3782383 L9.1939132,26.4041451 C8.76299497,27.1295337 9.05027379,28 10.0557497,28 L10.0557497,28 Z" id="XMLID_114_"></path>
            <path d="M41.4047814,44.8308824 L36.6910853,34.7720588 C35.8340496,32.8161765 34.2628176,31 30.9775142,31 L11.1228548,31 C7.55187293,31 6.26631944,32.9558824 5.40928378,34.7720588 L0.695587667,44.8308824 C-0.304287267,46.7867647 -0.875644372,50 3.69521247,50 L38.4051566,50 C42.8331742,50 42.2618171,46.7867647 41.4047814,44.8308824 Z M20.9787649,48.8823529 C20.2645685,48.8823529 19.5503721,48.3235294 19.5503721,47.4852941 C19.5503721,46.6470588 20.1217292,46.0882353 20.9787649,46.0882353 C21.6929613,46.0882353 22.4071577,46.6470588 22.4071577,47.4852941 C22.4071577,48.3235294 21.6929613,48.8823529 20.9787649,48.8823529 Z M33.4057819,45.3897059 L8.55174786,45.3897059 C5.26644451,45.3897059 5.83780161,43.2941176 6.40915872,42.0367647 L9.26594424,35.6102941 C9.83730135,34.3529412 10.5514977,33.2352941 12.9797654,33.2352941 L29.1206036,33.2352941 C31.4060321,33.2352941 32.2630677,34.4926471 32.8344248,35.6102941 L35.6912104,42.0367647 C36.1197282,43.2941176 36.6910853,45.3897059 33.4057819,45.3897059 Z" id="XMLID_59_"></path>
            <g id="XMLID_48_" transform="translate(56.000000, 37.000000)">
                <g id="XMLID_604_">
                    <path d="M4.44226804,5.04 C4.44226804,5.32 4.29896907,5.74 4.1556701,5.88 C4.01237113,6.02 3.7257732,6.3 3.43917526,6.44 C3.15257732,6.58 2.72268041,6.72 2.29278351,6.72 C1.8628866,6.72 1.57628866,6.72 1.43298969,6.58 C1.14639175,6.58 0.859793814,6.44 0.716494845,6.3 L0.716494845,5.04 C1.00309278,5.18 1.28969072,5.32 1.57628866,5.32 C1.8628866,5.46 2.14948454,5.46 2.43608247,5.46 C2.72268041,5.46 2.86597938,5.46 2.86597938,5.32 C3.00927835,5.18 3.00927835,5.18 3.00927835,5.04 C3.00927835,4.9 3.00927835,4.9 3.00927835,4.9 C3.00927835,4.9 2.86597938,4.76 2.86597938,4.76 C2.86597938,4.76 2.57938144,4.62 2.14948454,4.48 C1.71958763,4.34 1.57628866,4.2 1.28969072,4.06 C1.14639175,3.92 1.00309278,3.78 0.859793814,3.5 C0.716494845,3.22 0.716494845,3.08 0.716494845,2.8 C0.716494845,2.24 0.859793814,1.96 1.28969072,1.68 C1.71958763,1.4 2.14948454,1.26 2.86597938,1.26 C3.43917526,1.26 4.01237113,1.4 4.58556701,1.68 L4.1556701,2.8 C3.58247423,2.52 3.15257732,2.52 2.86597938,2.52 C2.72268041,2.52 2.57938144,2.52 2.43608247,2.66 C2.29278351,2.66 2.29278351,2.8 2.29278351,2.94 C2.29278351,3.08 2.29278351,3.08 2.43608247,3.22 C2.57938144,3.36 2.86597938,3.5 3.29587629,3.64 C3.7257732,3.78 4.1556701,4.06 4.29896907,4.34 C4.44226804,4.34 4.44226804,4.62 4.44226804,5.04 Z" id="XMLID_655_"></path>
                    <path d="M8.88453608,6.72 L7.73814433,2.8 L7.73814433,2.8 C7.73814433,3.5 7.8814433,3.92 7.8814433,4.34 L7.8814433,6.72 L6.59175258,6.72 L6.59175258,1.26 L8.59793814,1.26 L9.7443299,5.04 L9.7443299,5.04 L10.8907216,1.26 L12.8969072,1.26 L12.8969072,6.72 L11.4639175,6.72 L11.4639175,4.34 C11.4639175,4.2 11.4639175,4.06 11.4639175,3.92 C11.4639175,3.78 11.4639175,3.36 11.4639175,2.8 L11.4639175,2.8 L10.3175258,6.72 L8.88453608,6.72 Z" id="XMLID_653_"></path>
                    <path d="M18.485567,6.72 L18.1989691,5.6 L16.3360825,5.6 L16.0494845,6.58 L14.4731959,6.58 L16.3360825,1.12 L18.342268,1.12 L20.2051546,6.58 L18.485567,6.58 L18.485567,6.72 Z M17.9123711,4.48 L17.6257732,3.64 C17.6257732,3.5 17.4824742,3.22 17.4824742,2.94 C17.4824742,2.66 17.3391753,2.38 17.3391753,2.24 C17.3391753,2.38 17.3391753,2.52 17.1958763,2.8 C17.0525773,3.08 17.0525773,3.64 16.7659794,4.48 L17.9123711,4.48 L17.9123711,4.48 Z" id="XMLID_650_"></path>
                    <path d="M23.357732,4.76 L23.357732,6.72 L21.9247423,6.72 L21.9247423,1.26 L23.7876289,1.26 C25.2206186,1.26 26.0804124,1.82 26.0804124,2.8 C26.0804124,3.36 25.7938144,3.92 25.0773196,4.2 L26.6536082,6.58 L24.9340206,6.58 L23.7876289,4.62 L23.357732,4.62 L23.357732,4.76 Z M23.357732,3.64 L23.6443299,3.64 C24.2175258,3.64 24.3608247,3.36 24.3608247,2.94 C24.3608247,2.52 24.0742268,2.38 23.6443299,2.38 L23.357732,2.38 L23.357732,3.64 Z" id="XMLID_647_"></path>
                    <polygon id="XMLID_645_" points="30.6659794 6.72 29.2329897 6.72 29.2329897 2.52 27.943299 2.52 27.943299 1.26 32.0989691 1.26 32.0989691 2.52 30.8092784 2.52 30.8092784 6.72"></polygon>
                    <path d="M39.6938144,2.38 C39.4072165,2.38 39.1206186,2.52 38.8340206,2.8 C38.5474227,3.08 38.5474227,3.5 38.5474227,3.92 C38.5474227,4.9 38.9773196,5.46 39.6938144,5.46 C39.9804124,5.46 40.1237113,5.46 40.4103093,5.32 C40.6969072,5.32 40.8402062,5.18 41.1268041,5.04 L41.1268041,6.3 C40.6969072,6.44 40.1237113,6.58 39.5505155,6.58 C38.6907216,6.58 38.1175258,6.3 37.6876289,5.88 C37.257732,5.46 36.971134,4.76 36.971134,3.78 C36.971134,3.22 37.114433,2.8 37.257732,2.24 C37.4010309,1.82 37.8309278,1.54 38.1175258,1.26 C38.4041237,0.98 38.9773196,0.98 39.5505155,0.98 C40.1237113,0.98 40.6969072,1.12 41.2701031,1.4 L40.8402062,2.52 C40.6969072,2.38 40.4103093,2.38 40.2670103,2.24 C40.1237113,2.38 39.8371134,2.38 39.6938144,2.38 Z" id="XMLID_643_"></path>
                    <path d="M44.8525773,4.76 L44.8525773,6.72 L43.4195876,6.72 L43.4195876,1.26 L45.2824742,1.26 C46.7154639,1.26 47.5752577,1.82 47.5752577,2.8 C47.5752577,3.36 47.2886598,3.92 46.5721649,4.2 L48.1484536,6.58 L46.428866,6.58 L45.2824742,4.62 L44.8525773,4.62 L44.8525773,4.76 Z M44.8525773,3.64 L45.1391753,3.64 C45.7123711,3.64 45.8556701,3.36 45.8556701,2.94 C45.8556701,2.52 45.5690722,2.38 45.1391753,2.38 L44.8525773,2.38 L44.8525773,3.64 Z" id="XMLID_640_"></path>
                    <polygon id="XMLID_638_" points="53.0206186 6.72 49.7247423 6.72 49.7247423 1.26 53.0206186 1.26 53.0206186 2.38 51.3010309 2.38 51.3010309 3.22 53.0206186 3.22 53.0206186 4.34 51.3010309 4.34 51.3010309 5.32 53.0206186 5.32"></polygon>
                    <path d="M58.4659794,6.72 L58.3226804,5.6 L56.4597938,5.6 L56.1731959,6.58 L54.5969072,6.58 L56.4597938,1.12 L58.4659794,1.12 L60.328866,6.58 L58.4659794,6.58 L58.4659794,6.72 Z M57.8927835,4.48 L57.6061856,3.64 C57.6061856,3.5 57.4628866,3.22 57.4628866,2.94 C57.3195876,2.66 57.3195876,2.38 57.3195876,2.24 C57.3195876,2.38 57.3195876,2.52 57.1762887,2.8 C57.0329897,3.08 57.0329897,3.64 56.7463918,4.48 L57.8927835,4.48 L57.8927835,4.48 Z" id="XMLID_635_"></path>
                    <polygon id="XMLID_633_" points="64.3412371 6.72 62.9082474 6.72 62.9082474 2.52 61.6185567 2.52 61.6185567 1.26 65.7742268 1.26 65.7742268 2.52 64.4845361 2.52 64.4845361 6.72"></polygon>
                    <polygon id="XMLID_631_" points="67.6371134 6.72 67.6371134 1.26 69.0701031 1.26 69.0701031 6.72"></polygon>
                    <path d="M74.6587629,1.26 L76.3783505,1.26 L74.5154639,6.72 L72.7958763,6.72 L70.9329897,1.26 L72.6525773,1.26 L73.3690722,4.06 C73.5123711,4.62 73.6556701,5.04 73.6556701,5.32 C73.6556701,5.18 73.6556701,4.9 73.7989691,4.62 C73.7989691,4.34 73.942268,4.2 73.942268,4.06 L74.6587629,1.26 Z" id="XMLID_629_"></path>
                    <polygon id="XMLID_627_" points="81.2505155 6.72 77.9546392 6.72 77.9546392 1.26 81.2505155 1.26 81.2505155 2.38 79.5309278 2.38 79.5309278 3.22 81.2505155 3.22 81.2505155 4.34 79.5309278 4.34 79.5309278 5.32 81.2505155 5.32"></polygon>
                    <path d="M91.2814433,3.92 C91.2814433,4.76 90.9948454,5.46 90.5649485,6.02 C89.9917526,6.44 89.2752577,6.72 88.4154639,6.72 L86.6958763,6.72 L86.6958763,1.26 L88.5587629,1.26 C89.4185567,1.26 90.1350515,1.54 90.5649485,1.96 C90.9948454,2.38 91.2814433,3.08 91.2814433,3.92 Z M89.7051546,3.92 C89.7051546,3.36 89.5618557,3.08 89.4185567,2.8 C89.2752577,2.52 88.8453608,2.38 88.5587629,2.38 L88.128866,2.38 L88.128866,5.46 L88.4154639,5.46 C88.8453608,5.46 89.1319588,5.32 89.4185567,5.04 C89.5618557,4.76 89.7051546,4.48 89.7051546,3.92 Z" id="XMLID_624_"></path>
                    <polygon id="XMLID_622_" points="96.7268041 6.72 93.4309278 6.72 93.4309278 1.26 96.7268041 1.26 96.7268041 2.38 95.0072165 2.38 95.0072165 3.22 96.7268041 3.22 96.7268041 4.34 95.0072165 4.34 95.0072165 5.32 96.7268041 5.32"></polygon>
                    <path d="M103.461856,3.92 C103.461856,4.76 103.175258,5.46 102.745361,6.02 C102.172165,6.44 101.45567,6.72 100.595876,6.72 L98.8762887,6.72 L98.8762887,1.26 L100.739175,1.26 C101.598969,1.26 102.315464,1.54 102.745361,1.96 C103.318557,2.38 103.461856,3.08 103.461856,3.92 Z M102.028866,3.92 C102.028866,3.36 101.885567,3.08 101.742268,2.8 C101.598969,2.52 101.169072,2.38 100.882474,2.38 L100.309278,2.38 L100.309278,5.46 L100.595876,5.46 C101.025773,5.46 101.312371,5.32 101.598969,5.04 C101.885567,4.76 102.028866,4.48 102.028866,3.92 Z" id="XMLID_619_"></path>
                    <polygon id="XMLID_617_" points="105.61134 6.72 105.61134 1.26 107.04433 1.26 107.04433 6.72"></polygon>
                    <path d="M111.916495,2.38 C111.629897,2.38 111.343299,2.52 111.056701,2.8 C110.770103,3.08 110.770103,3.5 110.770103,3.92 C110.770103,4.9 111.2,5.46 111.916495,5.46 C112.203093,5.46 112.346392,5.46 112.63299,5.32 C112.919588,5.32 113.062887,5.18 113.349485,5.04 L113.349485,6.3 C112.919588,6.44 112.346392,6.58 111.773196,6.58 C110.913402,6.58 110.340206,6.3 109.910309,5.88 C109.480412,5.46 109.193814,4.76 109.193814,3.78 C109.193814,3.22 109.337113,2.8 109.480412,2.24 C109.76701,1.82 110.053608,1.54 110.340206,1.26 C110.770103,0.98 111.2,0.98 111.773196,0.98 C112.346392,0.98 112.919588,1.12 113.492784,1.4 L113.062887,2.52 C112.919588,2.38 112.63299,2.38 112.489691,2.24 C112.346392,2.38 112.203093,2.38 111.916495,2.38 Z" id="XMLID_615_"></path>
                    <path d="M119.081443,6.72 L118.794845,5.74 L116.931959,5.74 L116.645361,6.72 L115.069072,6.72 L116.931959,1.26 L118.938144,1.26 L120.801031,6.72 L119.081443,6.72 Z M118.508247,4.48 L118.221649,3.64 C118.221649,3.5 118.078351,3.22 118.078351,2.94 C117.935052,2.66 117.935052,2.38 117.935052,2.24 C117.935052,2.38 117.935052,2.52 117.791753,2.8 C117.648454,3.08 117.648454,3.64 117.361856,4.48 L118.508247,4.48 L118.508247,4.48 Z" id="XMLID_612_"></path>
                    <polygon id="XMLID_610_" points="124.813402 6.72 123.380412 6.72 123.380412 2.52 122.090722 2.52 122.090722 1.26 126.246392 1.26 126.246392 2.52 124.956701 2.52 124.956701 6.72"></polygon>
                    <polygon id="XMLID_608_" points="131.405155 6.72 128.109278 6.72 128.109278 1.26 131.405155 1.26 131.405155 2.38 129.685567 2.38 129.685567 3.22 131.405155 3.22 131.405155 4.34 129.685567 4.34 129.685567 5.32 131.405155 5.32"></polygon>
                    <path d="M138.283505,3.92 C138.283505,4.76 137.996907,5.46 137.56701,6.02 C136.993814,6.44 136.27732,6.72 135.417526,6.72 L133.697938,6.72 L133.697938,1.26 L135.560825,1.26 C136.420619,1.26 137.137113,1.54 137.56701,1.96 C137.996907,2.38 138.283505,3.08 138.283505,3.92 Z M136.707216,3.92 C136.707216,3.36 136.563918,3.08 136.420619,2.8 C136.27732,2.52 135.847423,2.38 135.560825,2.38 L135.130928,2.38 L135.130928,5.46 L135.417526,5.46 C135.847423,5.46 136.134021,5.32 136.420619,5.04 C136.563918,4.76 136.707216,4.48 136.707216,3.92 Z" id="XMLID_605_"></path>
                </g>
            </g>
        </g>
    </g>
</svg>