<svg xmlns="http://www.w3.org/2000/svg" width="120" height="100" viewBox="0 0 120 100">
    <g fill="none" fill-rule="evenodd">
        <g fill="#DDFAEC" transform="translate(7 7)">
            <rect width="32" height="32" x="19" y="19" rx="2"/>
            <rect width="18" height="18" rx="2"/>
        </g>
        <path fill="#31CA81" d="M39.52 71.462v-.003c.087 0 .174 0 .26.003 1.078-3.912 5.653-6.973 10.02-7.631V55.2h3.4v10.2a1.7 1.7 0 0 1-1.7 1.7c-3.228 0-7.425 2.347-8.365 5.018a10.141 10.141 0 0 1 4.977 4.074L45.24 78.01a6.748 6.748 0 0 0-5.72-3.152 6.87 6.87 0 0 0-6.861 6.861c0 1.091.255 2.142.758 3.125.41.799.151 1.82-.624 2.278-2.252 1.33-3.393 3.173-3.393 5.477H26c0-3.017 1.345-5.66 3.822-7.565a9.952 9.952 0 0 1-.563-3.315c0-5.659 4.641-10.201 10.26-10.258zm15.585 15.197c-1.274-1.488-3.273-2.442-5.401-2.562l.192-3.393c3 .169 5.743 1.456 7.628 3.556a10.125 10.125 0 0 1 5.873-1.858h.003v3.4h-.003c-1.814 0-3.521.707-4.806 1.99A6.756 6.756 0 0 0 56.6 92.6h-3.4c0-2.162.668-4.22 1.905-5.941zm30.47-4.132c.24-.76.362-1.547.362-2.346 0-4.314-3.51-7.823-7.825-7.823a7.828 7.828 0 0 0-3.776.972c-.03.017-.06.033-.092.048a7.692 7.692 0 0 0-3.861 6.665h-3.4c0-3.622 1.745-6.843 4.438-8.867-1.197-2.216-3.959-4.076-6.32-4.076a1.7 1.7 0 0 1-1.7-1.7V55.2h3.4v8.675c3.105.628 6.113 2.885 7.62 5.698a11.04 11.04 0 0 1 3.647-.616v.001h.044c6.143 0 11.15 4.96 11.224 11.084h.055c0 1.015-.141 2.013-.408 2.968 3.243 2.24 5.467 6.403 4.934 9.597l-3.354-.561c.295-1.76-1.102-4.318-3.026-5.877a11.075 11.075 0 0 1-3.686 3.471l-1.702-2.941a7.719 7.719 0 0 0 3.426-4.172z"/>
        <path fill="#034FC1" d="M53.2 48.4c.521 0 1.03.24 1.36.68l3.74 4.986 3.74-4.986a1.704 1.704 0 0 1 2.12-.502l5.048 2.525.746-2.242-6.057-6.06A1.7 1.7 0 0 1 63.4 41.6V28c0-7.313-3.718-12.838-5.1-13.56-1.382.717-5.1 6.236-5.1 13.56v13.6c0 .452-.178.884-.496 1.202l-6.057 6.059.746 2.242 5.047-2.524c.243-.121.503-.179.76-.179zm5.1 10.2a1.696 1.696 0 0 1-1.36-.68l-4.25-5.664-5.53 2.766a1.724 1.724 0 0 1-1.41.049 1.702 1.702 0 0 1-.962-1.034l-1.7-5.1a1.698 1.698 0 0 1 .41-1.739l6.301-6.302V28c0-8.595 4.867-17 8.5-17 3.635 0 8.5 8.405 8.5 17v12.896l6.304 6.302c.455.456.613 1.129.41 1.74l-1.7 5.1a1.702 1.702 0 0 1-2.374.984l-5.53-2.766-4.25 5.664c-.32.428-.824.68-1.36.68zm-1.7-25.5v-3.4H60v3.4h-3.4z"/>
    </g>
</svg>
