<?xml version="1.0" encoding="UTF-8"?>
<svg width="35px" height="35px" viewBox="0 0 35 35" version="1.1" xmlns="http://www.w3.org/2000/svg" xmlns:xlink="http://www.w3.org/1999/xlink">
    <!-- Generator: Sketch 53.2 (72643) - https://sketchapp.com -->
    <title>slide-arrow-top</title>
    <desc>Created with Sketch.</desc>
    <g id="slide-arrow-top" stroke="none" stroke-width="1" fill="none" fill-rule="evenodd">
        <path d="M10.2963977,16.3952652 L16.451983,10.4277665 C16.815197,10.0750588 16.8207282,9.49894927 16.4642745,9.1395638 C16.1065918,8.78078539 15.5233599,8.77592883 15.1601459,9.1274224 L7.41404001,16.6368791 C7.2382715,16.8074658 7.13871031,17.0399736 7.13809574,17.2828016 C7.13686659,17.5256297 7.23396947,17.7593516 7.40789426,17.9311525 L15.1669063,25.595412 C15.3469768,25.7732836 15.5829737,25.8619158 15.8189706,25.8619158 C16.0543529,25.8619158 16.2903498,25.7732836 16.4704203,25.595412 C16.8305614,25.239669 16.8305614,24.6629524 16.4704203,24.3078164 L10.3037726,18.2164754 L26.9452402,18.2164754 C27.4541084,18.2164754 27.867103,17.8085243 27.867103,17.3058703 C27.867103,16.8026092 27.4541084,16.3952652 26.9452402,16.3952652 L10.2963977,16.3952652 Z" id="1A" fill="#0AC16A" transform="translate(17.502594, 17.364509) scale(-1, 1) rotate(-270.000000) translate(-17.502594, -17.364509) "></path>
    </g>
</svg>