<?xml version="1.0" encoding="UTF-8"?>
<svg width="344px" height="304px" viewBox="0 0 344 304" version="1.1" xmlns="http://www.w3.org/2000/svg" xmlns:xlink="http://www.w3.org/1999/xlink">
    <!-- Generator: Sketch 54.1 (76490) - https://sketchapp.com -->
    <title>sprint-circle-active</title>
    <desc>Created with Sketch.</desc>
    <defs>
        <circle id="path-1" cx="173" cy="152" r="73"></circle>
        <filter x="-18.8%" y="-18.8%" width="144.5%" height="144.5%" filterUnits="objectBoundingBox" id="filter-2">
            <feOffset dx="5" dy="5" in="SourceAlpha" result="shadowOffsetOuter1"></feOffset>
            <feGaussianBlur stdDeviation="10" in="shadowOffsetOuter1" result="shadowBlurOuter1"></feGaussianBlur>
            <feColorMatrix values="0 0 0 0 0   0 0 0 0 0   0 0 0 0 0  0 0 0 0.15 0" type="matrix" in="shadowBlurOuter1"></feColorMatrix>
        </filter>
    </defs>
    <g id="sprint-circle-active" stroke="none" stroke-width="1" fill="none" fill-rule="evenodd">
        <circle id="Oval" fill="#F9F9F9" transform="translate(172.500000, 151.500000) rotate(-90.000000) translate(-172.500000, -151.500000) " cx="172.5" cy="151.5" r="151.5"></circle>
        <g id="Oval-Copy-2" transform="translate(173.000000, 152.000000) rotate(-90.000000) translate(-173.000000, -152.000000) ">
            <use fill="black" fill-opacity="1" filter="url(#filter-2)" xlink:href="#path-1"></use>
            <use fill="#FFFFFF" fill-rule="evenodd" xlink:href="#path-1"></use>
        </g>
        <circle id="Oval" stroke="#31CA81" stroke-width="2" transform="translate(173.000000, 150.000000) rotate(-90.000000) translate(-173.000000, -150.000000) " cx="173" cy="150" r="120"></circle>
        <path d="M294.550126,30.4812448 L297.359184,35.5194231 L281.722539,36.2232191 L290.541489,23.2916254 L293.555625,28.6975936 C308.531721,23.8919875 325.145124,28.6685412 335.242173,41.1373576 C348.623389,57.6617834 346.075314,81.9050961 329.550888,95.2863122 C313.026463,108.667528 289.174825,106.207059 275.793609,89.6826338 L276.956226,88.336387 C289.642314,104.002401 312.626234,106.418108 328.292248,93.7320203 C343.958262,81.0459323 346.373969,58.0620124 333.687881,42.3959984 C324.201326,30.6810791 308.647229,26.1282392 294.550126,30.4812448 Z" id="Oval" fill="#31CA81" fill-rule="nonzero" transform="translate(309.808469, 63.597017) rotate(9.000000) translate(-309.808469, -63.597017) "></path>
        <path d="M324.88587,237.840554 L324.885865,237.840543 L320.287669,241.323453 L317.414521,225.936932 L331.447626,232.870327 L326.513755,236.607495 C333.356863,250.769034 330.938934,267.885525 319.9967,279.619633 C305.495395,295.17038 281.133393,296.02112 265.582646,281.519814 C250.031899,267.018508 249.18116,242.656506 263.682465,227.105759 L265.145173,228.469756 C251.397182,243.212672 252.203727,266.309115 266.946643,280.057106 C281.689558,293.805098 304.786002,292.998552 318.533993,278.255636 C328.81463,267.231003 331.15845,251.194644 324.88587,237.840554 Z" id="Oval-Copy" fill="#31CA81" fill-rule="nonzero"></path>
        <path d="M155.283186,157.251908 C154.384611,157.251908 153.615842,157.114505 152.976855,156.839695 C152.337868,156.564884 151.853644,156.203565 151.524166,155.755725 C151.194689,155.307886 151.019968,154.819341 151,154.290076 C151,154.208651 151.029952,154.13486 151.089857,154.068702 C151.149762,154.002544 151.224642,153.969466 151.3145,153.969466 L152.677332,153.969466 C152.787157,153.969466 152.877013,153.994911 152.946903,154.045802 C153.016792,154.096692 153.081688,154.167938 153.141593,154.259542 C153.241435,154.6056 153.468571,154.895673 153.823009,155.129771 C154.177447,155.363869 154.664168,155.480916 155.283186,155.480916 C155.982077,155.480916 156.508734,155.361324 156.863172,155.122137 C157.21761,154.88295 157.394826,154.554709 157.394826,154.137405 C157.394826,153.862594 157.30497,153.633589 157.125255,153.450382 C156.94554,153.267175 156.673476,153.106871 156.309054,152.969466 C155.944632,152.83206 155.402999,152.666668 154.684139,152.473282 C153.506007,152.188294 152.64239,151.811707 152.093261,151.343511 C151.544132,150.875316 151.269571,150.203567 151.269571,149.328244 C151.269571,148.737911 151.429315,148.211198 151.748809,147.748092 C152.068302,147.284985 152.525071,146.921121 153.119129,146.656489 C153.713187,146.391856 154.40458,146.259542 155.193329,146.259542 C156.022015,146.259542 156.738368,146.407123 157.34241,146.70229 C157.946452,146.997457 158.405717,147.36641 158.720218,147.80916 C159.034719,148.251911 159.201951,148.69211 159.22192,149.129771 C159.22192,149.211196 159.191968,149.284987 159.132063,149.351145 C159.072158,149.417303 158.997278,149.450382 158.90742,149.450382 L157.484683,149.450382 C157.265032,149.450382 157.115272,149.35878 157.035398,149.175573 C156.985477,148.849871 156.790789,148.577609 156.451327,148.358779 C156.111866,148.139948 155.692537,148.030534 155.193329,148.030534 C154.6442,148.030534 154.212391,148.137404 153.89789,148.351145 C153.583388,148.564887 153.42614,148.875316 153.42614,149.282443 C153.42614,149.557253 153.506012,149.786259 153.665759,149.969466 C153.825506,150.152673 154.075106,150.312976 154.414568,150.450382 C154.754029,150.587787 155.248238,150.743002 155.897209,150.916031 C156.7858,151.119594 157.492169,151.348599 158.016338,151.603053 C158.540506,151.857508 158.927387,152.178115 159.176991,152.564885 C159.426595,152.951656 159.551396,153.44529 159.551396,154.045802 C159.551396,154.707382 159.374179,155.279896 159.019741,155.763359 C158.665303,156.246822 158.166103,156.615775 157.522124,156.870229 C156.878145,157.124683 156.13184,157.251908 155.283186,157.251908 Z M161.45337,160 C161.353528,160 161.268664,159.966921 161.198775,159.900763 C161.128886,159.834605 161.093941,159.745548 161.093941,159.633588 L161.093941,149.526718 C161.093941,149.414758 161.128886,149.3257 161.198775,149.259542 C161.268664,149.193384 161.353528,149.160305 161.45337,149.160305 L162.651464,149.160305 C162.761289,149.160305 162.851146,149.195928 162.921035,149.267176 C162.990924,149.338423 163.025868,149.424936 163.025868,149.526718 L163.025868,150.137405 C163.555029,149.38422 164.348758,149.007634 165.40708,149.007634 C166.41548,149.007634 167.189242,149.330786 167.728387,149.977099 C168.267532,150.623413 168.557068,151.491089 168.597005,152.580153 C168.606989,152.702291 168.611981,152.885495 168.611981,153.129771 C168.611981,153.374047 168.606989,153.557251 168.597005,153.679389 C168.567052,154.748097 168.280012,155.610684 167.735875,156.267176 C167.191738,156.923667 166.41548,157.251908 165.40708,157.251908 C164.408663,157.251908 163.644886,156.890589 163.115725,156.167939 L163.115725,159.633588 C163.115725,159.745548 163.083277,159.834605 163.01838,159.900763 C162.953483,159.966921 162.866123,160 162.756297,160 L161.45337,160 Z M164.837985,155.603053 C165.906291,155.603053 166.47538,154.931304 166.545269,153.587786 C166.555253,153.486005 166.560245,153.333334 166.560245,153.129771 C166.560245,152.926208 166.555253,152.773537 166.545269,152.671756 C166.47538,151.328238 165.906291,150.656489 164.837985,150.656489 C164.268888,150.656489 163.844567,150.844782 163.56501,151.221374 C163.285454,151.597966 163.135693,152.055977 163.115725,152.59542 C163.105741,152.717558 163.100749,152.91094 163.100749,153.175573 C163.100749,153.440205 163.105741,153.638676 163.115725,153.770992 C163.135693,154.279901 163.290446,154.712466 163.579986,155.068702 C163.869527,155.424938 164.288856,155.603053 164.837985,155.603053 Z M170.633764,157.099237 C170.533923,157.099237 170.449059,157.063614 170.37917,156.992366 C170.30928,156.921119 170.274336,156.834606 170.274336,156.732824 L170.274336,149.541985 C170.274336,149.430025 170.30928,149.338423 170.37917,149.267176 C170.449059,149.195928 170.533923,149.160305 170.633764,149.160305 L171.861811,149.160305 C171.971637,149.160305 172.061493,149.195928 172.131382,149.267176 C172.201271,149.338423 172.236215,149.430025 172.236215,149.541985 L172.236215,150.167939 C172.735423,149.49618 173.454273,149.160305 174.392784,149.160305 L175.021784,149.160305 C175.131609,149.160305 175.218969,149.193384 175.283867,149.259542 C175.348764,149.3257 175.381212,149.414758 175.381212,149.526718 L175.381212,150.641221 C175.381212,150.743003 175.348764,150.829516 175.283867,150.900763 C175.218969,150.972011 175.131609,151.007634 175.021784,151.007634 L173.838666,151.007634 C173.36941,151.007634 173.000001,151.145037 172.730429,151.419847 C172.460856,151.694658 172.326072,152.071244 172.326072,152.549618 L172.326072,156.732824 C172.326072,156.834606 172.291128,156.921119 172.221239,156.992366 C172.15135,157.063614 172.066486,157.099237 171.966644,157.099237 L170.633764,157.099237 Z M176.848877,147.862595 C176.749035,147.862595 176.664171,147.826972 176.594282,147.755725 C176.524393,147.684478 176.489449,147.597965 176.489449,147.496183 L176.489449,146.381679 C176.489449,146.26972 176.524393,146.178117 176.594282,146.10687 C176.664171,146.035623 176.749035,146 176.848877,146 L178.226685,146 C178.336511,146 178.426367,146.035623 178.496256,146.10687 C178.566145,146.178117 178.601089,146.26972 178.601089,146.381679 L178.601089,147.496183 C178.601089,147.597965 178.563649,147.684478 178.488768,147.755725 C178.413887,147.826972 178.326526,147.862595 178.226685,147.862595 L176.848877,147.862595 Z M176.908781,157.099237 C176.80894,157.099237 176.724076,157.063614 176.654187,156.992366 C176.584297,156.921119 176.549353,156.834606 176.549353,156.732824 L176.549353,149.526718 C176.549353,149.414758 176.584297,149.3257 176.654187,149.259542 C176.724076,149.193384 176.80894,149.160305 176.908781,149.160305 L178.181756,149.160305 C178.281598,149.160305 178.366462,149.195928 178.436351,149.267176 C178.50624,149.338423 178.541184,149.424936 178.541184,149.526718 L178.541184,156.732824 C178.541184,156.834606 178.50624,156.921119 178.436351,156.992366 C178.366462,157.063614 178.281598,157.099237 178.181756,157.099237 L176.908781,157.099237 Z M180.877468,157.099237 C180.777626,157.099237 180.692762,157.063614 180.622873,156.992366 C180.552984,156.921119 180.518039,156.834606 180.518039,156.732824 L180.518039,149.526718 C180.518039,149.414758 180.552984,149.3257 180.622873,149.259542 C180.692762,149.193384 180.777626,149.160305 180.877468,149.160305 L182.12049,149.160305 C182.230316,149.160305 182.317676,149.193384 182.382573,149.259542 C182.44747,149.3257 182.479918,149.414758 182.479918,149.526718 L182.479918,150.152672 C183.088952,149.389309 183.922618,149.007634 184.980939,149.007634 C185.899483,149.007634 186.628316,149.312974 187.167461,149.923664 C187.706606,150.534354 187.976174,151.37404 187.976174,152.442748 L187.976174,156.732824 C187.976174,156.834606 187.943726,156.921119 187.878829,156.992366 C187.813932,157.063614 187.726572,157.099237 187.616746,157.099237 L186.26889,157.099237 C186.169049,157.099237 186.084185,157.063614 186.014295,156.992366 C185.944406,156.921119 185.909462,156.834606 185.909462,156.732824 L185.909462,152.534351 C185.909462,151.944017 185.76719,151.483462 185.482641,151.152672 C185.198093,150.821881 184.791244,150.656489 184.262083,150.656489 C183.752891,150.656489 183.343546,150.824426 183.034037,151.160305 C182.724528,151.496185 182.569775,151.954196 182.569775,152.534351 L182.569775,156.732824 C182.569775,156.834606 182.537327,156.921119 182.47243,156.992366 C182.407533,157.063614 182.320173,157.099237 182.210347,157.099237 L180.877468,157.099237 Z M193.412526,157.099237 C192.503966,157.099237 191.820061,156.857509 191.36079,156.374046 C190.901518,155.890583 190.671886,155.180666 190.671886,154.244275 L190.671886,150.793893 L189.488768,150.793893 C189.388926,150.793893 189.304062,150.75827 189.234173,150.687023 C189.164284,150.615776 189.12934,150.529263 189.12934,150.427481 L189.12934,149.526718 C189.12934,149.424936 189.164284,149.338423 189.234173,149.267176 C189.304062,149.195928 189.388926,149.160305 189.488768,149.160305 L190.671886,149.160305 L190.671886,146.625954 C190.671886,146.513994 190.70683,146.424937 190.776719,146.358779 C190.846608,146.292621 190.931472,146.259542 191.031314,146.259542 L192.274336,146.259542 C192.384162,146.259542 192.471522,146.292621 192.536419,146.358779 C192.601316,146.424937 192.633764,146.513994 192.633764,146.625954 L192.633764,149.160305 L194.505786,149.160305 C194.605628,149.160305 194.690492,149.195928 194.760381,149.267176 C194.83027,149.338423 194.865214,149.424936 194.865214,149.526718 L194.865214,150.427481 C194.865214,150.529263 194.83027,150.615776 194.760381,150.687023 C194.690492,150.75827 194.605628,150.793893 194.505786,150.793893 L192.633764,150.793893 L192.633764,154.076336 C192.633764,154.513997 192.708645,154.844783 192.858407,155.068702 C193.00817,155.292622 193.252778,155.40458 193.59224,155.40458 L194.640572,155.40458 C194.750398,155.40458 194.837758,155.437659 194.902655,155.503817 C194.967552,155.569975 195,155.659033 195,155.770992 L195,156.732824 C195,156.834606 194.967552,156.921119 194.902655,156.992366 C194.837758,157.063614 194.750398,157.099237 194.640572,157.099237 L193.412526,157.099237 Z" id="Sprint" fill="#424A56" fill-rule="nonzero"></path>
    </g>
</svg>