<svg xmlns="http://www.w3.org/2000/svg" width="85" height="85" viewBox="0 0 85 85">
    <g fill="none" fill-rule="evenodd">
        <rect width="32" height="32" fill="#DDFAEC" rx="2"/>
        <path fill="#034FC1" d="M10.944 29.585l22.084 10.403v26.215l-22.084-10.4V29.584zm1.986-2.322L34.5 17.102l21.57 10.16L34.5 37.425 12.93 27.263zM35.127 14.14c-.02-.01-.043-.007-.062-.016-.103-.043-.21-.06-.32-.078-.082-.015-.16-.039-.242-.039-.09 0-.175.025-.265.042-.103.019-.203.034-.302.075-.019.009-.043.006-.063.016L8.845 25.931A1.474 1.474 0 0 0 8 27.263v29.473c0 .572.33 1.092.845 1.336L33.873 69.86a1.478 1.478 0 0 0 1.254 0l6.259-2.947-1.255-2.67-4.159 1.96V39.987l22.084-10.403v7.572H61v-9.894c0-.57-.33-1.09-.845-1.332L35.127 14.14z"/>
        <path fill="#3C9" d="M68.185 53.15l-8.642 8.534-2.355-2.692a1.442 1.442 0 0 0-2.17 1.9l3.364 3.843c.261.3.635.477 1.032.491l.053.001c.379 0 .743-.149 1.013-.415l9.73-9.61a1.443 1.443 0 0 0-2.025-2.052M62.5 74.117c-8.612 0-15.617-7.005-15.617-15.617 0-8.61 7.005-15.617 15.617-15.617 8.61 0 15.617 7.006 15.617 15.617 0 8.612-7.006 15.617-15.617 15.617zM62.5 40C52.299 40 44 48.3 44 58.5S52.299 77 62.5 77C72.7 77 81 68.7 81 58.5S72.7 40 62.5 40z"/>
    </g>
</svg>
