<?xml version="1.0" encoding="UTF-8"?>
<svg width="69px" height="68px" viewBox="0 0 69 68" version="1.1" xmlns="http://www.w3.org/2000/svg" xmlns:xlink="http://www.w3.org/1999/xlink">
    <!-- Generator: Sketch 53.2 (72643) - https://sketchapp.com -->
    <title>img_icon/2</title>
    <desc>Created with Sketch.</desc>
    <g id="Domain" stroke="none" stroke-width="1" fill="none" fill-rule="evenodd">
        <g id="img_icon/06">
            <g id="icon">
                <rect id="Rectangle-Copy-3" fill="#DDFAEC" x="0" y="0" width="28.2352941" height="28.2352941" rx="2"></rect>
                <g id="Group-30" transform="translate(5.294118, 8.823529)">
                    <path d="M30,54.8324194 L30,37.1576897 L24.352711,42.0390606 C24.112711,42.2460594 23.8153197,42.3529412 23.516624,42.3529412 C23.328798,42.3529412 23.1409719,42.3096473 22.9648849,42.2257654 L13.2352941,37.5161613 L13.2352941,45.3921569 C13.2352941,46.1511765 12.6436765,46.7647059 11.9117647,46.7647059 C11.1798529,46.7647059 10.5882353,46.1511765 10.5882353,45.3921569 L10.5882353,36.2348537 L3.39966752,32.7552307 C2.94053708,32.5333496 2.64705882,32.0544111 2.64705882,31.5294729 L2.64705882,30.1765394 C2.64705882,29.7747181 2.81923274,29.3945438 3.11531969,29.1361335 L9.0287973,24.0256983 L1.00313961,22.0190182 C0.412901792,21.872101 0,21.3426697 0,20.7351472 L0,19.4115688 C0,18.8966968 0.297765716,18.4294737 0.763603635,18.2124068 L20.6146513,8.94735815 C20.8885958,8.81897105 21.2022424,8.78985233 21.4947145,8.86264914 L28.1143772,10.5171221 C28.8237213,10.6944816 29.2551507,11.4131847 29.0778147,12.1226227 C28.9004787,12.8307371 28.1779005,13.2635473 27.47385,13.0861878 L21.309438,11.5442189 L3.41835042,19.8946749 L11.7756415,21.9846052 L27.2316673,14.771103 C27.8946922,14.4600621 28.6821171,14.7472786 28.9904701,15.4103914 C29.3001464,16.0735042 29.0142913,16.8610333 28.3512663,17.1694271 L14.9193273,23.4384951 L31.8281942,31.6232246 L49.0548047,23.6468796 L35.1799964,17.1719194 C34.5168909,16.8635193 34.2310011,16.0746504 34.5407151,15.4128476 C34.850429,14.7510448 35.6379495,14.4638224 36.2997315,14.7735461 L51.7523401,21.9845493 L60.1106462,19.8945761 L42.2173857,11.5439485 L36.0561957,13.0846254 C35.3480891,13.2646357 34.6280703,12.8304931 34.4520363,12.1223641 C34.2733552,11.4129115 34.7061606,10.6941937 35.4155908,10.5168305 L42.0320868,8.86232358 C42.325918,8.78952527 42.6396026,8.8199682 42.9122568,8.94703433 L62.7657154,18.2122734 C63.2316099,18.4293447 63.5294118,18.8965775 63.5294118,19.41146 L63.5294118,20.7350656 C63.5294118,21.3426006 63.1164598,21.8720428 62.5261503,22.018963 L53.0835162,24.3796959 L59.5317391,29.7102118 C59.8278261,29.9573979 60,30.3210592 60,30.7054271 L60,31.9995954 C60,32.5030268 59.7065217,32.9598682 59.2473913,33.1721118 L52.9411765,36.0920446 L52.9411765,45.3921569 C52.9411765,46.1511765 52.3495588,46.7647059 51.6176471,46.7647059 C50.8857353,46.7647059 50.2941176,46.1511765 50.2941176,45.3921569 L50.2941176,37.317698 L39.6821739,42.2312894 C39.506087,42.312822 39.3182609,42.3529412 39.1304348,42.3529412 C38.8317391,42.3529412 38.5343478,42.2507019 38.2943478,42.0539883 L32.6470588,37.384642 L32.6470588,54.8324194 L43.9983503,49.5353546 C44.6601517,49.2282356 45.449019,49.5128502 45.7574185,50.1747445 C46.0671416,50.8366389 45.7812434,51.625617 45.1181183,51.9340598 L31.8834134,58.110858 C31.7060506,58.1942567 31.5154518,58.2352941 31.3235294,58.2352941 C31.131607,58.2352941 30.9410082,58.1942567 30.7636454,58.110858 L17.5289405,51.9340598 C16.8658155,51.625617 16.5799173,50.8366389 16.8896403,50.1747445 C17.1993634,49.514174 17.9882307,49.2295594 18.6487085,49.5353546 L30,54.8324194 Z M32.7143478,34.0689704 L39.3286957,39.5381253 L57.2856522,31.2243886 L50.6713043,25.7552337 L32.7143478,34.0689704 Z M5.36140665,30.7190657 L23.3183632,39.4103107 L29.932711,33.6914607 L11.9757545,25.0002157 L5.36140665,30.7190657 Z" id="Combined-Shape" fill="#034FC1"></path>
                    <path d="M32.6470588,4.69409848 L32.6470588,25.123839 C32.6470588,25.8685913 32.0554412,26.4705882 31.3235294,26.4705882 C30.5916176,26.4705882 30,25.8685913 30,25.123839 L30,5.87480157 L28.8532176,7.40934575 C28.4164943,7.99646135 27.5867201,8.11600977 27.0004523,7.67500891 C26.4155078,7.23533637 26.2964015,6.40248234 26.7357715,5.81536674 L30.7059829,0.502103387 C31.2049061,-0.167367796 32.3245057,-0.167367796 32.8234289,0.502103387 L36.7936402,5.81536674 C37.2330103,6.40248234 37.113904,7.23533637 36.5289595,7.67500891 C36.2907468,7.85433155 36.012832,7.94067208 35.7362406,7.94067208 C35.3326025,7.94067208 34.9369047,7.7573645 34.6761942,7.40934575 L32.6470588,4.69409848 Z M0.0106561804,54.0415078 C-0.0236300489,53.7740896 0.0249012164,53.4987622 0.155083091,53.2556285 L3.27920091,47.4419745 C3.61805346,46.8140324 4.39459055,46.5805002 5.01967082,46.9217167 C5.64218402,47.2629331 5.87321985,48.0517529 5.53565083,48.6809924 L4.09553362,51.3598947 L20.6170147,43.3643137 C21.2814265,43.0445098 22.0676029,43.3409804 22.3759853,44.0272549 C22.6856912,44.7135294 22.3998088,45.5315686 21.7367206,45.8513725 L5.90869318,53.5113562 L7.79723489,53.9030316 C8.49162591,54.0470431 8.93957871,54.7320709 8.79710662,55.4339648 C8.67260397,56.0476355 8.13737097,56.4705882 7.54052841,56.4705882 C7.45581528,56.4705882 7.36853507,56.4615064 7.28125487,56.4433428 L2.07940018,55.3645449 L1.88377941,55.4592157 C1.70245588,55.5470588 1.51319118,55.5882353 1.32525,55.5882353 C0.826279412,55.5882353 0.349808824,55.2945098 0.124808824,54.7962745 C0.0145311402,54.5519112 -0.0202334134,54.2908417 0.0106561804,54.0415078 Z M60.5717462,55.3636972 L55.365804,56.4433428 C55.2785237,56.4615064 55.1912435,56.4705882 55.1065304,56.4705882 C54.5096879,56.4705882 53.9744548,56.0476355 53.8499522,55.4339648 C53.7074801,54.7320709 54.1554329,54.0470431 54.8498239,53.9030316 L56.5956923,53.540946 L41.337409,46.5460574 C40.6873523,46.2490701 40.4070883,45.4893946 40.7107076,44.8520829 C41.0143269,44.2160459 41.7850528,43.9407273 42.4351095,44.2364399 L58.7404508,51.7113336 L57.111408,48.6809924 C56.773839,48.0517529 57.0048748,47.2629331 57.627388,46.9217167 C58.2524683,46.5805002 59.0290054,46.8140324 59.3678579,47.4419745 L62.4919757,53.2556285 C62.6311802,53.5156131 62.6770238,53.8124086 62.62808,54.0969826 C62.671719,54.3448478 62.641272,54.6078492 62.5245865,54.8527776 C62.3040084,55.3154659 61.8369018,55.5882353 61.3477373,55.5882353 C61.1634897,55.5882353 60.9779446,55.5499966 60.8001846,55.4684207 L60.5717462,55.3636972 Z" id="Combined-Shape" fill="#31CA81"></path>
                </g>
            </g>
        </g>
    </g>
</svg>