<?xml version="1.0" encoding="UTF-8"?>
<svg width="85px" height="85px" viewBox="0 0 85 85" version="1.1" xmlns="http://www.w3.org/2000/svg" xmlns:xlink="http://www.w3.org/1999/xlink">
    <!-- Generator: Sketch 53.2 (72643) - https://sketchapp.com -->
    <title>img_icon/06</title>
    <desc>Created with Sketch.</desc>
    <g id="img_icon/06" stroke="none" stroke-width="1" fill="none" fill-rule="evenodd">
        <g id="icon">
            <rect id="Rectangle-Copy-3" fill="#DDFAEC" x="0" y="0" width="32" height="32" rx="2"></rect>
            <g id="Group-30" transform="translate(6.000000, 10.000000)">
                <path d="M34,62.1434087 L34,42.1120483 L27.5997391,47.6442687 C27.3277391,47.8788674 26.9906957,48 26.6521739,48 C26.4393043,48 26.2264348,47.9509336 26.0268696,47.8558675 L15,42.5183162 L15,51.4444444 C15,52.3046667 14.3295,53 13.5,53 C12.6705,53 12,52.3046667 12,51.4444444 L12,41.0661675 L3.85295652,37.1225948 C3.3326087,36.8711295 3,36.3283326 3,35.7334026 L3,34.2000779 C3,33.7446805 3.19513043,33.3138163 3.53069565,33.0209513 L10.2326369,27.2291247 L1.13689156,24.9548873 C0.467955365,24.7883812 0,24.188359 0,23.4998335 L0,21.999778 C0,21.4162564 0.337467811,20.8867368 0.865417453,20.6407277 L23.3632715,10.1403392 C23.6737419,9.99483386 24.029208,9.96183264 24.3606764,10.0443357 L31.8629608,11.9194051 C32.6668841,12.1204125 33.1558375,12.9349426 32.9548566,13.7389724 C32.7538758,14.5415021 31.9349539,15.0320202 31.13703,14.8310128 L24.1506964,13.0834481 L3.87413047,22.5472983 L13.345727,24.9158859 L30.8625562,16.7405834 C31.6139845,16.3880704 32.5063994,16.7135824 32.8558661,17.4651102 C33.2068326,18.216638 32.8828635,19.1091711 32.1314352,19.458684 L16.9085709,26.5636278 L36.0719535,35.8396545 L55.5954454,26.7997969 L39.8706626,19.4615087 C39.119143,19.1119885 38.7951346,18.2179371 39.1461437,17.4678939 C39.4971529,16.7178508 40.3896762,16.392332 41.1396957,16.7433522 L58.6526521,24.9158225 L68.125399,22.5471862 L47.8463705,13.0831416 L40.8636885,14.8292421 C40.0611676,15.0332538 39.2451463,14.5412255 39.0456411,13.7386793 C38.8431358,12.9346331 39.3336486,12.1200862 40.1376696,11.9190746 L47.636365,10.0439667 C47.9693737,9.96146197 48.324883,9.99596396 48.633891,10.1399722 L71.1344774,20.6405765 C71.6624912,20.8865907 72,21.4161211 72,21.9996547 L72,23.499741 C72,24.1882807 71.5319878,24.7883152 70.8629704,24.9548248 L60.1613184,27.630322 L67.4693043,33.6715733 C67.8048696,33.9517176 68,34.3638671 68,34.7994841 L68,36.2662081 C68,36.8367637 67.6673913,37.3545173 67.1470435,37.59506 L60,40.9043172 L60,51.4444444 C60,52.3046667 59.3295,53 58.5,53 C57.6705,53 57,52.3046667 57,51.4444444 L57,42.2933911 L44.9731304,47.8621279 C44.7735652,47.9545316 44.5606957,48 44.3478261,48 C44.0093043,48 43.6722609,47.8841288 43.4002609,47.6611868 L37,42.369261 L37,62.1434087 L49.864797,56.1400685 C50.6148386,55.7920004 51.5088882,56.1145635 51.8584076,56.8647105 C52.2094271,57.6148574 51.8854091,58.5090326 51.1338674,58.8586011 L36.1345352,65.8589724 C35.9335241,65.9534909 35.7175121,66 35.5,66 C35.2824879,66 35.0664759,65.9534909 34.8654648,65.8589724 L19.8661326,58.8586011 C19.1145909,58.5090326 18.7905729,57.6148574 19.1415924,56.8647105 C19.4926118,56.1160638 20.3866614,55.7935006 21.135203,56.1400685 L34,62.1434087 Z M37.0762609,38.6114997 L44.5725217,44.8098753 L64.9237391,35.3876404 L57.4274783,29.1892648 L37.0762609,38.6114997 Z M6.07626087,34.8149411 L26.4274783,44.6650188 L33.9237391,38.1836554 L13.5725217,28.3335778 L6.07626087,34.8149411 Z" id="Combined-Shape" fill="#034FC1"></path>
                <path d="M37,5.98904336 L37,28.4736842 C37,29.3177368 36.3295,30 35.5,30 C34.6705,30 34,29.3177368 34,28.4736842 L34,5.98904336 L32.2003132,8.39725851 C31.7053602,9.06265619 30.7649495,9.19814441 30.1005126,8.69834344 C29.4375755,8.20004789 29.3025883,7.25614665 29.8005411,6.59074897 L34.3001139,0.569050505 C34.8655602,-0.189683502 36.1344398,-0.189683502 36.6998861,0.569050505 L41.1994589,6.59074897 C41.6974117,7.25614665 41.5624245,8.20004789 40.8994874,8.69834344 C40.6295131,8.90157576 40.314543,8.99942836 40.0010727,8.99942836 C39.5436161,8.99942836 39.0951587,8.79167976 38.7996868,8.39725851 L37,5.98904336 Z M0.000965382515,61.5041891 C-0.0154723926,61.0606707 0.152945818,60.6257725 0.465266284,60.3176398 L3.71642769,54.2675711 C4.10046058,53.5559033 4.98053595,53.2912335 5.68896026,53.6779455 C6.39447522,54.0646575 6.65631583,54.9586533 6.27373761,55.6717914 L5.00491172,58.032058 L23.36595,49.1462222 C24.11895,48.7837778 25.00995,49.1197778 25.35945,49.8975556 C25.71045,50.6753333 25.38645,51.6024444 24.63495,51.9648889 L5.9732924,60.9962096 L8.83686621,61.5901025 C9.6238427,61.7533155 10.1315225,62.5296803 9.97005416,63.3251601 C9.82895117,64.0206536 9.22235377,64.5 8.5459322,64.5 C8.44992398,64.5 8.35100642,64.4897073 8.25208886,64.4691219 L1.16202712,62.998734 C0.709624738,62.9060996 0.329955859,62.6017293 0.136484745,62.179728 C0.0376676604,61.9657956 -0.00731594152,61.7341027 0.000965382515,61.5041891 Z M69.5175463,62.9999676 L62.7479111,64.4677183 C62.6489936,64.4892394 62.550076,64.5 62.4540678,64.5 C61.7776462,64.5 61.1710488,63.9988651 61.0299458,63.2717583 C60.8684775,62.4401203 61.3761573,61.6284662 62.1631338,61.4578344 L64.6587435,60.9167294 L46.8490635,52.7521983 C46.1123326,52.4156128 45.7947001,51.5546472 46.138802,50.8323607 C46.4829038,50.1115187 47.3563932,49.7994909 48.0931241,50.1346318 L66.4010631,58.5275809 L64.7262624,55.2705092 C64.3436842,54.5249558 64.6055248,53.5903238 65.3110397,53.186034 C66.019464,52.7817442 66.8995394,53.0584444 67.2835723,53.8024607 L70.8242392,60.6907598 C70.9517153,60.939662 71.0101105,61.21704 70.9985716,61.4922458 C71.0087037,61.717461 70.9651418,61.9482983 70.861198,62.1664813 C70.6112095,62.6908614 70.081822,63 69.5274356,63 C69.5241395,63 69.5208431,62.9999892 69.5175463,62.9999676 Z" id="Combined-Shape" fill="#31CA81"></path>
            </g>
        </g>
    </g>
</svg>