<?xml version="1.0" encoding="UTF-8"?>
<svg width="101px" height="84px" viewBox="0 0 101 84" version="1.1" xmlns="http://www.w3.org/2000/svg" xmlns:xlink="http://www.w3.org/1999/xlink">
    <!-- Generator: Sketch 53.2 (72643) - https://sketchapp.com -->
    <title>Artboard</title>
    <desc>Created with Sketch.</desc>
    <defs>
        <polygon id="path-1" points="0 0.452818182 49.4545455 0.452818182 49.4545455 54.5441909 0 54.5441909"></polygon>
    </defs>
    <g id="Artboard" stroke="none" stroke-width="1" fill="none" fill-rule="evenodd">
        <g id="Group-4">
            <g fill="#034FC1">
                <rect id="Rectangle" x="19" y="19" width="32" height="32" rx="2"></rect>
                <rect id="Rectangle-Copy-6" x="0" y="0" width="18" height="18" rx="2"></rect>
            </g>
            <g id="Group-6" transform="translate(33.000000, 25.000000)">
                <g id="Group-3" transform="translate(0.000000, 0.220841)">
                    <mask id="mask-2" fill="white">
                        <use xlink:href="#path-1"></use>
                    </mask>
                    <g id="Clip-2"></g>
                    <path d="M3.09090909,15.2432818 L23.1818182,24.6180091 L23.1818182,50.5708273 L3.09090909,41.1961 L3.09090909,15.2432818 Z M24.7272727,3.70337273 L44.2556364,12.8169182 L24.7272727,21.9289182 L5.19890909,12.8169182 L24.7272727,3.70337273 Z M48.5628182,11.4151909 L25.381,0.597009091 C24.9668182,0.403827273 24.4877273,0.403827273 24.0735455,0.597009091 L0.891727273,11.4151909 C0.347727273,11.6701909 0,12.2157364 0,12.8169182 L0,42.1805545 C0,42.7801909 0.347727273,43.3257364 0.891727273,43.5807364 L24.0735455,54.3989182 C24.2806364,54.4947364 24.5031818,54.5441909 24.7272727,54.5441909 C24.9637273,54.5441909 25.2017273,54.4901 25.4180909,54.3803727 L34.6908182,49.7440091 L33.3091818,46.9791909 L26.2727273,50.4981909 L26.2727273,24.6180091 L46.3636364,15.2432818 L46.3636364,22.0896455 L49.4545455,22.0896455 L49.4545455,12.8169182 C49.4545455,12.2157364 49.1068182,11.6701909 48.5628182,11.4151909 L48.5628182,11.4151909 Z" id="Fill-1" fill="#FFFFFF" mask="url(#mask-2)"></path>
                </g>
                <path d="M37.0909091,39.7116909 C37.0909091,33.1527818 42.4258182,27.8178727 48.9831818,27.8178727 C55.5420909,27.8178727 60.8785455,33.1527818 60.8785455,39.7116909 C60.8785455,46.2690545 55.5420909,51.6039636 48.9831818,51.6039636 C42.4258182,51.6039636 37.0909091,46.2690545 37.0909091,39.7116909 L37.0909091,39.7116909 Z M67.5471818,56.0888727 L60.6080909,49.1497818 C62.7052727,46.5719636 63.9694545,43.2878727 63.9694545,39.7116909 C63.9694545,31.4496909 57.2467273,24.7269636 48.9831818,24.7269636 C40.7227273,24.7269636 34,31.4496909 34,39.7116909 C34,47.9736909 40.7227273,54.6948727 48.9831818,54.6948727 C52.5593636,54.6948727 55.8434545,53.4322364 58.4228182,51.3350545 L65.3619091,58.2741455 L67.5471818,56.0888727 Z" id="Fill-4" fill="#4EDD99"></path>
            </g>
        </g>
    </g>
</svg>