<?xml version="1.0" encoding="utf-8"?>
<!-- Generator: Adobe Illustrator 23.0.1, SVG Export Plug-In . SVG Version: 6.00 Build 0)  -->
<svg version="1.1" id="Layer_1" xmlns="http://www.w3.org/2000/svg" xmlns:xlink="http://www.w3.org/1999/xlink" x="0px" y="0px"
	 viewBox="0 0 35 35" style="enable-background:new 0 0 35 35;" xml:space="preserve">
<style type="text/css">
	.st0{fill-rule:evenodd;clip-rule:evenodd;fill:#034FC1;}
</style>
<path class="st0" d="M25.96,16.34l-7.34-7.12c-0.43-0.42-0.44-1.11-0.01-1.54c0.43-0.43,1.12-0.43,1.56-0.01l9.24,8.96
	c0.21,0.2,0.33,0.48,0.33,0.77c0,0.29-0.11,0.57-0.32,0.77l-9.26,9.14c-0.21,0.21-0.5,0.32-0.78,0.32c-0.28,0-0.56-0.11-0.78-0.32
	c-0.43-0.42-0.43-1.11,0-1.54l7.36-7.27H6.1c-0.61,0-1.1-0.49-1.1-1.09c0-0.6,0.49-1.09,1.1-1.09H25.96z"/>
</svg>
