<?xml version="1.0" encoding="utf-8"?>
<!-- Generator: Adobe Illustrator 23.0.1, SVG Export Plug-In . SVG Version: 6.00 Build 0)  -->
<svg version="1.1" id="Layer_1" xmlns="http://www.w3.org/2000/svg" xmlns:xlink="http://www.w3.org/1999/xlink" x="0px" y="0px"
	 viewBox="0 0 35 35" style="enable-background:new 0 0 35 35;" xml:space="preserve">
<style type="text/css">
	.st0{fill:#034FC1;}
</style>
<path class="st0" d="M28.61,23.8c0.49,0,0.89,0.4,0.89,0.9c0,0.5-0.4,0.9-0.89,0.9H6.39c-0.49,0-0.89-0.4-0.89-0.9
	c0-0.5,0.4-0.9,0.89-0.9H28.61z M28.54,16.6c0.53,0,0.96,0.4,0.96,0.9s-0.43,0.9-0.96,0.9H11.26c-0.53,0-0.96-0.4-0.96-0.9
	s0.43-0.9,0.96-0.9H28.54z M28.61,9.4c0.49,0,0.89,0.4,0.89,0.9s-0.4,0.9-0.89,0.9H6.39c-0.49,0-0.89-0.4-0.89-0.9s0.4-0.9,0.89-0.9
	H28.61z"/>
</svg>
