<?xml version="1.0" encoding="utf-8"?>
<!-- Generator: Adobe Illustrator 23.0.1, SVG Export Plug-In . SVG Version: 6.00 Build 0)  -->
<svg version="1.1" id="Layer_1" xmlns="http://www.w3.org/2000/svg" xmlns:xlink="http://www.w3.org/1999/xlink" x="0px" y="0px"
	 viewBox="0 0 35 35" style="enable-background:new 0 0 35 35;" xml:space="preserve">
<style type="text/css">
	.st0{fill:#034FC1;}
</style>
<path class="st0" d="M17.5,18.96L7.76,28.7c-0.4,0.4-1.05,0.39-1.45-0.01c-0.4-0.4-0.41-1.05-0.01-1.45l9.74-9.74L6.3,7.76
	C5.9,7.36,5.9,6.71,6.31,6.31C6.71,5.9,7.36,5.9,7.76,6.3l9.74,9.74l9.74-9.74c0.4-0.4,1.05-0.39,1.45,0.01s0.41,1.05,0.01,1.45
	l-9.74,9.74l9.74,9.74c0.4,0.4,0.39,1.05-0.01,1.45s-1.05,0.41-1.45,0.01L17.5,18.96z"/>
</svg>
